<svg width="40" height="40" viewBox="0 0 40 40" fill="none" xmlns="http://www.w3.org/2000/svg">
<circle cx="20" cy="20" r="19.5" fill="white" stroke="#F8F7F7"/>
<path d="M29.3865 15.9732L18.4725 9.66978C17.7123 9.23221 16.8524 9 15.984 9C13.2366 9 11 11.2368 11 13.984V26.5887C11 28.6685 12.2796 30.4544 14.0941 31.2014V21.3399H20.329V18.2456H14.0941V13.984C14.0941 12.8833 14.9981 12.0943 15.984 12.0943C16.2978 12.0943 16.6204 12.174 16.9256 12.3507L27.8393 18.6518C29.097 19.3791 29.097 21.1936 27.8393 21.9209L17.6481 27.8044V31.2832C17.9334 31.1815 18.2096 31.0555 18.4725 30.9029L29.3865 24.5995C30.9227 23.7132 31.8775 22.06 31.8775 20.2854C31.8775 18.5127 30.9227 16.8595 29.3865 15.9732Z" fill="white"/>
<path d="M22.9638 27.3449L24.858 29.2393C24.2533 29.5617 23.6183 29.8251 22.9638 30.0249V27.3449ZM22.7887 24.2129C22.6414 24.2129 22.4937 24.2491 22.3589 24.3245C22.0127 24.5184 21.6416 24.673 21.2516 24.7827C20.8628 24.8918 20.6031 25.259 20.6031 25.6628V31.8088C20.6031 32.3289 21.0292 32.7305 21.5333 32.7305C21.5769 32.7305 21.6209 32.7277 21.6655 32.7214C23.9062 32.4106 25.9634 31.5276 27.6862 30.225C28.1354 29.8852 28.1864 29.229 27.788 28.8307L23.4432 24.4857C23.2658 24.3085 23.028 24.2129 22.7887 24.2129Z" fill="#FF8D10"/>
<path d="M22.9638 9.70563C23.6183 9.90556 24.2533 10.1688 24.858 10.4914L22.9638 12.3856V9.70563ZM21.5333 7C21.0292 7 20.6031 7.40163 20.6031 7.92185V14.0677C20.6031 14.4715 20.863 14.8387 21.2516 14.9478C21.6416 15.0575 22.0127 15.2121 22.3589 15.406C22.4935 15.4814 22.6414 15.5176 22.7887 15.5176C23.028 15.5176 23.2658 15.4222 23.4432 15.2448L27.788 10.8998C28.1864 10.5016 28.1354 9.84546 27.686 9.50571C25.9634 8.20292 23.9062 7.31995 21.6655 7.0091C21.6211 7.00303 21.5769 7 21.5333 7Z" fill="#F96A58"/>
<path d="M27.3448 22.9642H30.0248C29.825 23.6187 29.5616 24.2536 29.2394 24.8586L27.3448 22.9642ZM25.6627 20.6035C25.2589 20.6035 24.8919 20.8632 24.7826 21.252C24.6731 21.642 24.5183 22.0131 24.3244 22.3593C24.1263 22.713 24.199 23.1568 24.4858 23.4436L28.8308 27.7884C29.0118 27.9696 29.2465 28.0579 29.4805 28.0579C29.7607 28.0579 30.0398 27.9314 30.2249 27.6866C31.5275 25.9638 32.4105 23.9066 32.7213 21.6659C32.7991 21.1063 32.3737 20.6035 31.8087 20.6035H25.6627Z" fill="#FF43A1"/>
<path d="M29.2393 14.8723C29.5617 15.4771 29.8251 16.112 30.025 16.7665H27.3449L29.2393 14.8723ZM29.4806 11.6729C29.2466 11.6729 29.0121 11.7611 28.8307 11.9423L24.4859 16.2871C24.1993 16.5739 24.1265 17.0178 24.3245 17.3714C24.5185 17.7178 24.6732 18.0887 24.7827 18.4788C24.892 18.8675 25.259 19.1272 25.6628 19.1272H31.8088C32.374 19.1272 32.7992 18.6245 32.7216 18.0648C32.4106 15.8241 31.5276 13.767 30.225 12.0443C30.0398 11.7995 29.7607 11.6729 29.4806 11.6729Z" fill="#5066FF"/>
<path d="M12.3857 22.9642L10.4913 24.8586C10.1689 24.2536 9.90547 23.6187 9.70573 22.9642H12.3857ZM14.0678 20.6035H7.92177C7.35678 20.6035 6.93143 21.1063 7.00919 21.6659C7.32004 23.9066 8.20301 25.9638 9.50563 27.6866C9.69075 27.9314 9.97003 28.0579 10.2502 28.0579C10.484 28.0579 10.7187 27.9696 10.8999 27.7884L15.2447 23.4436C15.5315 23.1568 15.6042 22.713 15.4061 22.3593C15.2122 22.0131 15.0574 21.642 14.9479 21.252C14.8388 20.8632 14.4716 20.6035 14.0678 20.6035Z" fill="#FFB90B"/>
<path d="M10.4917 14.8723L12.386 16.7665H9.70587C9.9058 16.112 10.1692 15.4771 10.4917 14.8723ZM10.2504 11.6729C9.97018 11.6729 9.69107 11.7995 9.50595 12.0443C8.20334 13.767 7.32036 15.8241 7.00934 18.0648C6.93176 18.6245 7.35693 19.1272 7.92209 19.1272H14.068C14.4719 19.1272 14.8389 18.8675 14.9483 18.4788C15.0578 18.0887 15.2124 17.7178 15.4064 17.3714C15.6046 17.0178 15.5316 16.5739 15.245 16.2871L10.9002 11.9423C10.719 11.7611 10.4843 11.6729 10.2504 11.6729Z" fill="#31E553"/>
<path d="M16.7672 27.3449V30.0249C16.1127 29.8251 15.4778 29.5617 14.8729 29.2393L16.7672 27.3449ZM16.9423 24.2129C16.703 24.2129 16.4653 24.3083 16.2878 24.4857L11.943 28.8307C11.5446 29.229 11.5956 29.8852 12.0451 30.225C13.7677 31.5276 15.8248 32.4106 18.0655 32.7214C18.1099 32.7277 18.1542 32.7305 18.1977 32.7305C18.702 32.7305 19.1279 32.3289 19.1279 31.8088V25.6628C19.1279 25.259 18.8683 24.8918 18.4795 24.7827C18.0894 24.673 17.7183 24.5184 17.3721 24.3245C17.2373 24.2491 17.0896 24.2129 16.9423 24.2129Z" fill="#9934FF"/>
<path d="M16.7672 9.70563V12.3856L14.873 10.4914C15.4778 10.1688 16.1125 9.90556 16.7672 9.70563ZM18.1977 7C18.1542 7 18.1099 7.00303 18.0655 7.0091C15.8248 7.31995 13.7677 8.20292 12.0451 9.50571C11.5956 9.84546 11.5446 10.5016 11.943 10.8998L16.2878 15.2448C16.4653 15.422 16.7032 15.5176 16.9423 15.5176C17.0896 15.5176 17.2373 15.4814 17.3721 15.406C17.7183 15.2121 18.0893 15.0575 18.4795 14.9478C18.8683 14.8387 19.1279 14.4715 19.1279 14.0677V7.92185C19.1279 7.40163 18.7019 7 18.1977 7Z" fill="#10A3DD"/>
</svg>
