<svg width="250" height="39" viewBox="0 0 250 39" fill="none" xmlns="http://www.w3.org/2000/svg">
<path d="M35.8151 19.3585C35.8151 22.4059 34.1766 25.2418 31.5435 26.7617L12.8184 37.5729C12.3656 37.8381 11.8934 38.0526 11.4025 38.2256V32.2576L28.8876 22.164C31.0445 20.9164 31.0445 17.8041 28.8876 16.5571L10.1625 5.74537C9.6407 5.4421 9.08792 5.30822 8.5468 5.30822C6.85854 5.30822 5.30771 6.65873 5.30771 8.54731V15.8582H16.0038V21.17H5.30771V38.0876C2.1954 36.8056 0 33.743 0 30.1737V8.54731C0 3.83447 3.83397 0 8.5468 0C10.0398 0 11.5136 0.395568 12.8184 1.14765L31.5435 11.9629C34.1766 13.4828 35.8151 16.3187 35.8151 19.3585Z" fill="#11111C"/>
<path d="M35.8151 19.3585C35.8151 22.4059 34.1766 25.2418 31.5435 26.7617L12.8184 37.5729C12.3656 37.8381 11.8934 38.0526 11.4025 38.2256V32.2576L28.8876 22.164C31.0445 20.9164 31.0445 17.8041 28.8876 16.5571L10.1625 5.74537C9.6407 5.4421 9.08792 5.30822 8.5468 5.30822C6.85854 5.30822 5.30771 6.65873 5.30771 8.54731V15.8582H16.0038V21.17H5.30771V38.0876C2.1954 36.8056 0 33.743 0 30.1737V8.54731C0 3.83447 3.83397 0 8.5468 0C10.0398 0 11.5136 0.395568 12.8184 1.14765L31.5435 11.9629C34.1766 13.4828 35.8151 16.3187 35.8151 19.3585Z" fill="#523EE8"/>
<path d="M61.2644 12.9916H58.647V11.0919C58.647 10.6507 58.7966 10.2744 59.0923 9.96755C59.4032 9.65668 59.7637 9.49896 60.1781 9.49896H60.7425C61.0108 9.49896 61.2451 9.40311 61.4408 9.21141C61.6326 9.01566 61.7289 8.78541 61.7289 8.51257V5.12032C61.7289 4.84748 61.6326 4.61369 61.4408 4.42149C61.2451 4.22573 61.0108 4.12988 60.7425 4.12988H60.0056C57.9218 4.12988 56.1407 4.83633 54.6518 6.24465C53.178 7.65297 52.4412 9.3458 52.4412 11.3221V12.9916H50.5987C50.3305 12.9916 50.0962 13.0799 49.9004 13.264C49.7082 13.4562 49.6124 13.69 49.6124 13.9587V17.3555C49.6124 17.6238 49.7082 17.8581 49.9004 18.0539C50.0962 18.2456 50.3305 18.3414 50.5987 18.3414H52.4412V31.8587C52.4412 32.131 52.5411 32.3613 52.7328 32.557C52.9285 32.7492 53.1588 32.8451 53.4311 32.8451H57.6566C57.9294 32.8451 58.1632 32.7492 58.3554 32.557C58.5512 32.3613 58.647 32.131 58.647 31.8587V18.3414H61.2644C61.5367 18.3414 61.771 18.2456 61.9627 18.0539C62.1584 17.8581 62.2548 17.6238 62.2548 17.3555V13.9587C62.2548 13.69 62.1584 13.4562 61.9627 13.264C61.771 13.0799 61.5367 12.9916 61.2644 12.9916Z" fill="white"/>
<path d="M84.4908 12.9913H80.2618C79.9889 12.9913 79.7587 13.0872 79.5629 13.2829C79.3712 13.4746 79.2713 13.7089 79.2713 13.9772V14.9098C77.5136 13.4361 75.5489 12.6992 73.3804 12.6992C70.755 12.6992 68.4718 13.7013 66.5335 15.7045C64.5684 17.7346 63.586 20.1526 63.586 22.9581C63.586 25.7636 64.5684 28.1817 66.5335 30.2077C68.4718 32.2149 70.755 33.213 73.3804 33.213C75.5489 33.213 77.5136 32.4761 79.2713 31.0024V31.8579C79.2713 32.1307 79.3712 32.361 79.5629 32.5567C79.7587 32.7484 79.9889 32.8443 80.2618 32.8443H84.4908C84.7596 32.8443 84.9939 32.7484 85.1856 32.5567C85.3813 32.361 85.4772 32.1307 85.4772 31.8579V13.9772C85.4772 13.7089 85.3813 13.4746 85.1856 13.2829C84.9939 13.0872 84.7596 12.9913 84.4908 12.9913ZM78.0126 26.4467C77.0572 27.4022 75.913 27.8819 74.5813 27.8819C73.2343 27.8819 72.0867 27.4022 71.1312 26.4467C70.187 25.4796 69.7153 24.3127 69.7153 22.9581C69.7153 21.5995 70.187 20.4366 71.1312 19.4655C72.0867 18.51 73.2343 18.0303 74.5813 18.0303C75.913 18.0303 77.0572 18.51 78.0126 19.4655C78.9569 20.4366 79.429 21.5995 79.429 22.9581C79.429 24.3127 78.9569 25.4796 78.0126 26.4467Z" fill="white"/>
<path d="M106.006 14.8723C104.383 13.4254 102.514 12.7002 100.403 12.7002C98.4108 12.7002 96.7108 13.3869 95.302 14.7571V13.9817C95.302 13.7094 95.2178 13.4792 95.0337 13.2834C94.838 13.0724 94.6077 12.9725 94.3349 12.9725H90.2286C89.6144 12.9725 89.1154 13.4675 89.1154 14.0857V31.8589C89.1154 32.1429 89.2077 32.3767 89.3918 32.5537C89.5876 32.7494 89.8254 32.8453 90.1094 32.8453H94.3349C94.6077 32.8453 94.838 32.7494 95.0337 32.5537C95.2178 32.3767 95.302 32.1429 95.302 31.8589V21.5193C95.302 20.5563 95.6479 19.7195 96.3345 19.0212C97.0176 18.3381 97.8392 17.9962 98.7947 17.9962C99.7658 17.9962 100.591 18.3381 101.278 19.0212C101.945 19.7195 102.287 20.5563 102.287 21.5193V31.8589C102.287 32.1429 102.391 32.3767 102.594 32.5537C102.778 32.7494 103.005 32.8453 103.274 32.8453H107.503C107.787 32.8453 108.025 32.7494 108.221 32.5537C108.397 32.3767 108.489 32.1429 108.489 31.8589V20.0689C108.489 18.0652 107.664 16.3344 106.006 14.8723Z" fill="white"/>
<path d="M170.771 7.33413C170.744 7.33008 170.721 7.33008 170.694 7.33008H164.864C164.856 7.33008 164.849 7.33008 164.841 7.33413C164.799 7.33413 164.757 7.33819 164.719 7.34935C164.672 7.35696 164.63 7.36862 164.588 7.38789C164.546 7.40716 164.5 7.42998 164.457 7.46092C164.415 7.4878 164.377 7.52228 164.335 7.56083C164.331 7.56083 164.331 7.56083 164.327 7.56438C164.162 7.70282 164.074 7.86359 164.062 8.04007C161.775 17.0169 160.601 21.7338 160.539 22.1943L160.462 22.8201C160.462 22.9043 160.447 22.9697 160.42 23.0083C160.412 23.0194 160.401 23.0311 160.386 23.0351C160.374 23.0427 160.362 23.0463 160.347 23.0463C160.262 23.0427 160.217 22.9657 160.217 22.8161L160.124 22.206C160.048 21.711 159.188 16.948 157.553 7.9214C157.488 7.52583 157.261 7.33008 156.866 7.33008H151.286C151.186 7.33008 151.094 7.34174 151.017 7.37268C150.979 7.38384 150.94 7.39956 150.91 7.41883C150.875 7.43759 150.844 7.45686 150.814 7.48374C150.729 7.55677 150.668 7.65667 150.63 7.78295C150.614 7.8291 150.603 7.87525 150.595 7.92495C150.553 8.1557 150.514 8.38188 150.472 8.60452C150.453 8.70442 150.433 8.80382 150.418 8.90373C150.288 9.61017 150.165 10.2892 150.05 10.9419C150.027 11.053 150.008 11.1605 149.989 11.2721C149.919 11.6555 149.85 12.0318 149.785 12.3964C149.766 12.4998 149.747 12.5998 149.732 12.7032C149.501 13.9619 149.298 15.0984 149.113 16.1076C149.091 16.2304 149.067 16.3531 149.049 16.4758C149.01 16.6949 148.971 16.9099 148.933 17.1168C148.876 17.4277 148.822 17.7269 148.772 18.0074C148.753 18.1184 148.734 18.2259 148.714 18.3335C148.653 18.6677 148.599 18.9745 148.545 19.2661C148.538 19.3198 148.526 19.3736 148.519 19.4233C148.219 21.0776 148.054 22.0062 148.024 22.2136L147.928 22.8201C147.928 22.9352 147.904 23.0083 147.855 23.0351C147.843 23.0427 147.828 23.0463 147.813 23.0463C147.728 23.0427 147.686 22.9657 147.686 22.8161L147.609 22.1867C147.563 21.8606 146.957 19.3853 145.786 14.7566C145.514 13.6896 145.218 12.5039 144.888 11.2066V11.2026C144.635 10.2127 144.366 9.16085 144.082 8.04007C144.055 7.86359 143.967 7.70282 143.813 7.56438C143.648 7.41071 143.472 7.33413 143.28 7.33413H137.45C137.25 7.33413 137.07 7.41883 136.92 7.58365C136.767 7.74847 136.721 7.93306 136.786 8.13643L137.208 9.67509L143.568 32.8599C143.644 33.2286 143.871 33.4127 144.251 33.4127H150.442C150.545 33.4127 150.641 33.4011 150.726 33.3782C150.81 33.3549 150.887 33.3204 150.948 33.2743C150.979 33.2514 151.01 33.2246 151.036 33.1977C151.121 33.1171 151.178 33.0019 151.209 32.8559C151.301 32.4223 151.389 31.9963 151.474 31.5855C151.581 31.0753 151.685 30.5763 151.785 30.1006C151.804 30.0047 151.823 29.9084 151.846 29.8166C151.896 29.5787 151.942 29.3485 151.988 29.1178C152.065 28.7612 152.138 28.4159 152.207 28.0817C152.245 27.8976 152.28 27.717 152.318 27.5406C152.337 27.4564 152.353 27.3757 152.372 27.2951C152.445 26.9497 152.514 26.612 152.579 26.2894C152.656 25.9248 152.729 25.5754 152.798 25.2417C152.902 24.7467 152.994 24.2863 153.082 23.8603C153.17 23.4267 153.251 23.0311 153.328 22.6665C153.377 22.4286 153.424 22.2019 153.466 21.995C153.485 21.891 153.504 21.7916 153.523 21.6993C153.554 21.5533 153.585 21.4113 153.608 21.281C153.631 21.1506 153.657 21.0314 153.681 20.9163C153.696 20.8433 153.708 20.7708 153.723 20.7053C153.815 20.2408 153.865 19.9568 153.876 19.865L153.934 19.5384C153.934 19.508 153.938 19.4811 153.941 19.4542C153.95 19.4314 153.961 19.4121 153.972 19.3964C153.984 19.3812 153.999 19.3695 154.018 19.3619C154.03 19.3584 154.045 19.3543 154.061 19.3543C154.164 19.3543 154.214 19.4198 154.214 19.5465L154.272 19.8686C154.276 19.9071 154.287 19.9801 154.31 20.0877V20.0953C154.325 20.1718 154.341 20.2641 154.364 20.3716C154.371 20.4173 154.379 20.4675 154.391 20.5172V20.5248C154.402 20.5826 154.414 20.6475 154.429 20.713C154.467 20.9087 154.513 21.143 154.567 21.4113V21.4194C154.582 21.4843 154.594 21.5533 154.609 21.6263C154.652 21.8373 154.698 22.0716 154.751 22.3211C154.748 22.3251 154.748 22.3251 154.751 22.3287C154.809 22.6091 154.87 22.9119 154.939 23.2421C155.381 25.4106 156.049 28.6152 156.939 32.8599C157.016 33.2286 157.269 33.4127 157.699 33.4127H163.889C163.985 33.4127 164.074 33.4011 164.151 33.3742C164.342 33.3204 164.469 33.1901 164.542 32.9903C164.55 32.9674 164.557 32.9406 164.565 32.9137C164.568 32.8944 164.577 32.8751 164.58 32.8559L168.222 19.5734L170.94 9.67914L171.362 8.13237C171.423 7.92901 171.381 7.74492 171.228 7.57959C171.093 7.43404 170.94 7.35341 170.771 7.33413Z" fill="white"/>
<path d="M193.195 13.9012H189.047C188.778 13.9012 188.552 13.997 188.359 14.1852C188.168 14.3769 188.072 14.6071 188.072 14.8718V15.7852C186.344 14.3383 184.414 13.6172 182.284 13.6172C179.705 13.6172 177.464 14.5995 175.56 16.5682C173.63 18.5603 172.662 20.9357 172.662 23.6915C172.662 26.4473 173.63 28.8227 175.56 30.8148C177.464 32.7835 179.705 33.7699 182.284 33.7699C184.414 33.7699 186.344 33.0446 188.072 31.5978V32.434C188.072 32.7028 188.168 32.9295 188.359 33.1212C188.552 33.3094 188.778 33.4052 189.047 33.4052H193.195C193.464 33.4052 193.694 33.3094 193.882 33.1212C194.074 32.9295 194.17 32.7028 194.17 32.434V14.8718C194.17 14.6071 194.074 14.3769 193.882 14.1852C193.694 13.997 193.464 13.9012 193.195 13.9012ZM186.836 27.1187C185.896 28.059 184.771 28.5311 183.462 28.5311C182.142 28.5311 181.014 28.059 180.074 27.1187C179.145 26.1668 178.684 25.0232 178.684 23.6915C178.684 22.3597 179.145 21.2161 180.074 20.2642C181.014 19.324 182.142 18.8519 183.462 18.8519C184.771 18.8519 185.896 19.324 186.836 20.2642C187.761 21.2161 188.225 22.3597 188.225 23.6915C188.225 25.0232 187.761 26.1668 186.836 27.1187Z" fill="white"/>
<path d="M202.851 7.31152H198.68C198.411 7.31152 198.185 7.40737 197.992 7.59552C197.816 7.78722 197.728 8.01391 197.728 8.28269V32.4341C197.728 32.7029 197.816 32.9296 197.992 33.1213C198.185 33.3095 198.411 33.4053 198.68 33.4053H202.851C203.116 33.4053 203.346 33.3095 203.534 33.1213C203.726 32.9296 203.822 32.7029 203.822 32.4341V8.28269C203.822 8.01391 203.726 7.78722 203.534 7.59552C203.346 7.40737 203.116 7.31152 202.851 7.31152Z" fill="white"/>
<path d="M233.24 16.3755C231.298 14.5336 228.957 13.6162 226.213 13.6162C223.518 13.6162 221.197 14.5985 219.239 16.5678C217.27 18.5481 216.288 20.9236 216.288 23.6905C216.288 26.4463 217.297 28.8258 219.316 30.8331C221.297 32.8018 223.595 33.7846 226.213 33.7846C229.31 33.7846 231.9 32.8976 233.984 31.1211C234.187 30.9172 234.295 30.6682 234.307 30.3761C234.307 30.0729 234.207 29.8122 234.003 29.5972L232.115 27.594C231.927 27.3942 231.709 27.2638 231.471 27.2141C231.19 27.1639 230.956 27.2329 230.764 27.4251V27.4058C230.027 28.0392 229.144 28.4728 228.116 28.699C227.66 28.841 227.183 28.91 226.688 28.91H226.347V28.8912C225.291 28.8258 224.382 28.4764 223.622 27.8435C222.858 27.2217 222.379 26.4346 222.175 25.4833H235.239C235.52 25.4833 235.753 25.3869 235.945 25.1952C236.137 25.0035 236.233 24.7692 236.233 24.4888V23.3299C236.233 20.5742 235.236 18.256 233.24 16.3755ZM222.233 21.1193C222.601 20.2825 223.154 19.607 223.887 19.1004C224.639 18.5786 225.468 18.3179 226.385 18.3179C227.283 18.3179 228.112 18.5786 228.86 19.1004C229.597 19.607 230.15 20.2825 230.519 21.1193H222.233Z" fill="white"/>
<path d="M249.029 19.1587C249.294 19.1587 249.524 19.0628 249.712 18.8706C249.904 18.683 250 18.4527 250 18.1875V14.8718C250 14.6071 249.904 14.3769 249.712 14.1847C249.524 13.9965 249.294 13.9007 249.029 13.9007H246.131V9.69039C246.131 9.41045 246.043 9.17615 245.866 8.98445C245.675 8.80797 245.44 8.71973 245.16 8.71973H241.007C240.743 8.71973 240.512 8.80797 240.321 8.98445C240.144 9.17615 240.056 9.41045 240.056 9.69039V13.9007H238.551C238.283 13.9007 238.056 13.9965 237.864 14.1847C237.677 14.3769 237.58 14.6071 237.58 14.8718V18.2068C237.58 18.4832 237.677 18.7134 237.864 18.8899C238.056 19.0821 238.283 19.1779 238.551 19.1779H240.037V29.0068C240.037 30.3497 240.447 31.4745 241.273 32.3762C242.136 33.3053 243.261 33.7693 244.646 33.7693C246.473 33.7693 248.081 33.5467 249.466 33.1019C249.819 32.9214 250 32.6374 250 32.2418V29.1371C250 28.8724 249.908 28.6422 249.731 28.454C249.539 28.2623 249.313 28.166 249.044 28.166C248.971 28.166 248.899 28.1741 248.837 28.1852C248.326 28.3658 247.904 28.454 247.559 28.454C247.168 28.454 246.83 28.312 246.549 28.0356C246.269 27.7557 246.131 27.4179 246.131 27.0264V19.1587H249.029Z" fill="white"/>
<path d="M212.846 7.31152H208.674C208.409 7.31152 208.179 7.40737 207.987 7.59552C207.81 7.78722 207.722 8.01391 207.722 8.28269V32.4341C207.722 32.7029 207.81 32.9296 207.987 33.1213C208.179 33.3095 208.409 33.4053 208.674 33.4053H212.846C213.11 33.4053 213.341 33.3095 213.533 33.1213C213.72 32.9296 213.817 32.7029 213.817 32.4341V8.28269C213.817 8.01391 213.72 7.78722 213.533 7.59552C213.341 7.40737 213.11 7.31152 212.846 7.31152Z" fill="white"/>
<path d="M123.561 14.3769C125.111 14.3769 126.481 14.8719 127.675 15.8583C127.844 15.9967 128.036 16.0581 128.247 16.0464C128.473 16.0348 128.657 15.9541 128.804 15.8086L131.893 12.857C132.058 12.6998 132.15 12.5081 132.161 12.2855C132.161 12.0471 132.089 11.8402 131.943 11.6597C129.548 9.48 126.754 8.38965 123.561 8.38965C120.129 8.38965 117.205 9.60272 114.787 12.0319C112.362 14.45 111.145 17.3741 111.145 20.8014C111.145 24.2327 112.362 27.1609 114.787 29.5906C117.205 32.0081 120.129 33.2131 123.561 33.2131C126.754 33.2131 129.548 32.1232 131.943 29.9435C132.089 29.763 132.161 29.5556 132.161 29.3177C132.15 29.0951 132.058 28.9034 131.893 28.7462L128.804 25.7946C128.657 25.6486 128.473 25.568 128.247 25.5568C128.036 25.5451 127.844 25.6105 127.675 25.7449C126.481 26.7349 125.111 27.2263 123.561 27.2263C121.784 27.2263 120.272 26.6045 119.021 25.357C117.762 24.0942 117.132 22.5784 117.132 20.8014C117.132 19.0248 117.762 17.5085 119.021 16.2498C120.272 14.9987 121.784 14.3769 123.561 14.3769Z" fill="white"/>
</svg>
