<svg width="22" height="20" viewBox="0 0 22 20" fill="none" xmlns="http://www.w3.org/2000/svg">
<path fill-rule="evenodd" clip-rule="evenodd" d="M12.7321 1.875L20.9593 16.125C21.7291 17.4583 20.7668 19.125 19.2272 19.125H2.77276C1.23316 19.125 0.270906 17.4583 1.04071 16.125L9.26795 1.875C10.0377 0.541672 11.9622 0.541662 12.7321 1.875ZM11.433 2.625C11.2406 2.29167 10.7594 2.29167 10.567 2.625L2.33975 16.875C2.1473 17.2083 2.38786 17.625 2.77276 17.625H19.2272C19.6121 17.625 19.8527 17.2083 19.6603 16.875L11.433 2.625Z" fill="#DB2B1D"/>
<path fill-rule="evenodd" clip-rule="evenodd" d="M11 6.19141C11.4142 6.19141 11.75 6.52719 11.75 6.94141L11.75 12.7743C11.75 13.1886 11.4142 13.5243 11 13.5243C10.5858 13.5243 10.25 13.1886 10.25 12.7743L10.25 6.94141C10.25 6.52719 10.5858 6.19141 11 6.19141Z" fill="#DB2B1D"/>
<path d="M11.75 15.2207C11.75 15.6349 11.4142 15.9707 11 15.9707C10.5858 15.9707 10.25 15.6349 10.25 15.2207C10.25 14.8065 10.5858 14.4707 11 14.4707C11.4142 14.4707 11.75 14.8065 11.75 15.2207Z" fill="#DB2B1D"/>
</svg>
