<svg width="26" height="26" viewBox="0 0 26 26" fill="none" xmlns="http://www.w3.org/2000/svg">
<path fill-rule="evenodd" clip-rule="evenodd" d="M13 24C19.0751 24 24 19.0751 24 13C24 6.92487 19.0751 2 13 2C6.92487 2 2 6.92487 2 13C2 19.0751 6.92487 24 13 24ZM13 26C20.1797 26 26 20.1797 26 13C26 5.8203 20.1797 0 13 0C5.8203 0 0 5.8203 0 13C0 20.1797 5.8203 26 13 26ZM12.2967 10.8614H16.331L15.4568 11.7402C15.0688 12.1282 15.0688 12.7126 15.4568 13.1006C15.6532 13.2969 16.2843 13.6382 16.8172 13.1006L19.3463 10.5715C19.7343 10.1835 19.8044 9.66463 19.3463 9.21117L16.8172 6.68211C16.4292 6.29411 15.8448 6.29411 15.4568 6.68211C15.0688 7.07013 15.0688 7.65447 15.4568 8.04248L16.331 8.91666H12.2967C11.7638 8.91666 11.3243 9.35609 11.3243 9.88902C11.3243 10.4266 11.7638 10.8614 12.2967 10.8614ZM10.4969 19.2761C10.1089 19.6641 9.52452 19.6641 9.13651 19.2761L6.60746 16.747C6.1914 16.331 6.1353 15.8588 6.60746 15.3867L9.13651 12.8623C9.66943 12.3247 10.3005 12.6659 10.4969 12.8623C10.8849 13.2503 10.8849 13.8346 10.4969 14.2226L9.62268 15.0968H13.657C14.1899 15.0968 14.6294 15.5363 14.6294 16.0692C14.6294 16.6021 14.1899 17.0415 13.657 17.0415H9.62268L10.4969 17.9157C10.8849 18.3037 10.8849 18.8881 10.4969 19.2761Z" fill="#FEC9FF"/>
</svg>
