<svg width="22" height="22" viewBox="0 0 22 22" fill="none" xmlns="http://www.w3.org/2000/svg">
<path d="M1.58694 11.4016L6.42579 12.5918C6.51153 12.6136 6.5995 12.6254 6.68795 12.6274C7.02697 12.6035 7.33557 12.4228 7.52237 12.1387C7.70941 11.8545 7.75314 11.4997 7.64097 11.1787C7.52855 10.8577 7.27305 10.6077 6.94984 10.5019L2.30941 9.36135L19.5468 2.27663L11.0521 19.3508L10.6412 13.1658C10.6038 12.8327 10.7212 12.5013 10.9602 12.2661L13.4823 9.72272C13.7039 9.52182 13.8334 9.23891 13.8403 8.93993C13.8475 8.64093 13.7313 8.35209 13.5193 8.14106C13.3073 7.93004 13.018 7.81539 12.719 7.8238C12.42 7.83194 12.1376 7.96291 11.9376 8.18529L9.40841 10.7286C8.74618 11.3945 8.4032 12.3138 8.46628 13.251L8.89126 19.6841C8.91647 20.1494 9.0971 20.5929 9.404 20.9436C9.71115 21.2942 10.1268 21.5317 10.5846 21.6182C10.7262 21.6518 10.8712 21.6686 11.0168 21.6678C11.4089 21.6691 11.7931 21.5593 12.1255 21.3513C12.4578 21.143 12.7242 20.845 12.8942 20.4919L21.5799 3.05654C21.8319 2.53911 21.8636 1.94164 21.6674 1.40049C21.4709 0.859593 21.0637 0.421277 20.5384 0.185772C20.0133 -0.0494646 19.4151 -0.0618166 18.8806 0.151677L1.28903 7.392C0.742703 7.626 0.31918 8.07795 0.121243 8.63834C-0.0766935 9.19872 -0.0307188 9.81649 0.247769 10.3416C0.526242 10.8667 1.01196 11.2511 1.58694 11.4016Z" fill="#A9E5BA"/>
</svg>
