<svg width="91" height="87" viewBox="0 0 91 87" fill="none" xmlns="http://www.w3.org/2000/svg">
<path d="M23.411 62.4286C23.8847 59.9441 24.1689 57.173 24.1689 55.8352C24.1689 55.1663 24.0742 54.4974 23.6952 53.9241C23.6005 53.8286 23.5057 53.6374 23.3163 53.3508C20.6636 48.9552 15.8321 47.9997 13.3689 47.9041C12.5163 47.8085 11.6636 47.9997 10.9057 48.2863L5.69521 50.4841C5.411 48.4774 5.22153 46.3752 5.22153 44.3686C5.22153 37.6797 7.211 31.1819 10.9057 25.6397C11.0005 25.8308 11.0005 25.8308 11.0005 25.8308C14.7899 21.2441 21.8005 21.3397 21.8005 21.3397C22.4636 20.9574 22.9373 20.2885 23.1268 19.6197C23.6005 18.2819 23.2215 16.753 22.1794 15.7974C22.0847 15.7019 21.8952 15.5108 21.8005 15.4152L33.6426 8.53521C41.0321 4.23521 49.5584 2.22855 57.9899 3.08855C64.4321 3.75744 70.6847 5.85966 75.8005 9.29966L77.5057 10.5419C80.0636 12.5485 82.3373 14.8419 84.1373 17.613C87.1689 22.8685 88.5899 28.6019 88.5899 34.2397C88.5899 40.4508 86.8847 46.6619 83.5689 51.9174C80.8215 56.4086 76.9373 60.2308 72.1057 63.0974L69.2636 64.7219L61.9689 68.9263C59.3163 70.4552 56.4742 71.793 53.5373 72.8441C48.8005 74.5641 43.8742 75.4241 38.7584 75.5197C37.7163 75.5197 36.6742 75.5197 35.6321 75.4241C34.4005 75.3286 33.1689 75.233 32.0321 75.0419C28.1478 74.4686 24.4531 73.4174 21.2321 71.793C19.811 71.1241 18.011 70.073 16.7794 69.1174M23.411 62.4286C23.8847 59.9441 24.1689 57.173 24.1689 55.8352C24.1689 55.1663 24.0742 54.4974 23.6952 53.9241C23.6005 53.8286 23.5057 53.6374 23.3163 53.3508C20.6636 48.9552 15.8321 47.9997 13.3689 47.9041C12.5163 47.8085 11.6636 47.9997 10.9057 48.2863L5.69521 50.4841C5.411 48.4774 5.22153 46.3752 5.22153 44.3686C5.22153 37.6797 7.211 31.1819 10.9057 25.6397C11.0005 25.8308 11.0005 25.8308 11.0005 25.8308C14.7899 21.2441 21.8005 21.3397 21.8005 21.3397C22.4636 20.9574 22.9373 20.2885 23.1268 19.6197C23.6005 18.2819 23.2215 16.753 22.1794 15.7974C22.0847 15.7019 21.8952 15.5108 21.8005 15.4152L33.6426 8.53521C41.0321 4.23521 49.5584 2.22855 57.9899 3.08855C64.4321 3.75744 70.6847 5.85966 75.8005 9.29966" fill="#0A043C"/>
<path d="M23.411 62.4286C23.8847 59.9441 24.1689 57.173 24.1689 55.8352C24.1689 55.1663 24.0742 54.4974 23.6952 53.9241C23.6005 53.8286 23.5057 53.6374 23.3163 53.3508C20.6636 48.9552 15.8321 47.9997 13.3689 47.9041C12.5163 47.8085 11.6636 47.9997 10.9057 48.2863L5.69521 50.4841C5.411 48.4774 5.22153 46.3752 5.22153 44.3686C5.22153 37.6797 7.211 31.1819 10.9057 25.6397C11.0005 25.8308 11.0005 25.8308 11.0005 25.8308C14.7899 21.2441 21.8005 21.3397 21.8005 21.3397C22.4636 20.9574 22.9373 20.2885 23.1268 19.6197C23.6005 18.2819 23.2215 16.753 22.1794 15.7974C22.0847 15.7019 21.8952 15.5108 21.8005 15.4152L33.6426 8.53521C41.0321 4.23521 49.5584 2.22855 57.9899 3.08855C64.4321 3.75744 70.6847 5.85966 75.8005 9.29966L77.5057 10.5419C80.0636 12.5485 82.3373 14.8419 84.1373 17.613C87.1689 22.8685 88.5899 28.6019 88.5899 34.2397C88.5899 40.4508 86.8847 46.6619 83.5689 51.9174C80.8215 56.4086 76.9373 60.2308 72.1057 63.0974L69.2636 64.7219L61.9689 68.9263C59.3163 70.4552 56.4742 71.793 53.5373 72.8441C48.8005 74.5641 43.8742 75.4241 38.7584 75.5197C37.7163 75.5197 36.6742 75.5197 35.6321 75.4241C34.4005 75.3286 33.1689 75.233 32.0321 75.0419C28.1478 74.4685 24.4531 73.4174 21.2321 71.793C19.811 71.1241 18.011 70.073 16.7794 69.1174" stroke="#3B3663" stroke-width="2" stroke-linecap="round" stroke-linejoin="round"/>
<path d="M83.8531 51.6309L82.7163 64.4353C82.7163 67.3975 80.7268 69.4042 78.3584 69.6909C77.2216 69.7864 75.0426 69.882 74.0005 69.6909C71.6321 69.3086 69.6426 67.3975 69.6426 64.5309L72.39 62.9064C77.2216 60.0398 81.011 56.122 83.7584 51.6309H83.8531Z" fill="#221D4F"/>
<path d="M21.7058 21.0531C18.7689 17.3265 13.9374 11.3065 9.9584 12.262C12.8005 9.1087 28.0531 15.9887 21.7058 21.0531Z" fill="#221D4F"/>
<path d="M6.16891 50.293L12.4215 47.8086C12.4215 47.8086 20.19 47.9042 24.1689 54.8797C24.1689 54.8797 23.8847 61.1864 23.79 61.1864C20.4742 51.7264 6.16891 50.293 6.16891 50.293Z" fill="#221D4F"/>
<path d="M17.5373 69.5952C17.5373 69.5952 31.3689 79.9152 51.4531 73.2263C76.3689 62.4285 82.9057 56.6952 87.5479 41.5019C87.5479 41.5019 87.5479 41.3107 87.6426 41.1196C46.1479 77.3352 17.5373 69.5952 17.5373 69.5952Z" fill="#221D4F"/>
<path d="M49.6531 46.8533C47.0952 38.731 36.9584 30.2266 35.6321 29.1755L35.5373 29.0799C38.7584 26.0221 54.2005 20.3844 58.5584 30.991C62.2531 40.0688 49.6531 46.8533 49.6531 46.8533Z" stroke="#3B3663" stroke-width="2" stroke-linecap="round" stroke-linejoin="round"/>
<path d="M22.2742 21.2442C22.2742 21.2442 15.2637 21.1486 11.3795 25.8309C11.3795 25.8309 11.2847 25.7353 11.19 25.6397C10.4321 24.1109 6.0742 16.2753 9.20052 12.4531C9.48473 12.1664 9.76894 11.8797 10.1479 11.6886C10.9058 11.402 11.7584 11.402 12.4216 11.6886C13.8426 12.3575 16.3058 13.8864 19.1479 17.1353C19.7163 17.8042 20.2847 18.4731 20.9479 19.3331C21.0426 19.4286 21.1374 19.5242 21.1374 19.6197C21.2321 19.7153 21.3268 19.8109 21.3268 19.9064C21.4216 20.002 21.5163 20.0975 21.5163 20.1931C21.611 20.3842 21.8005 20.5753 21.8953 20.6709C21.99 20.7664 22.0847 20.9575 22.1795 21.0531C22.2742 21.1486 22.2742 21.2442 22.2742 21.2442Z" fill="#0A043C" stroke="#3B3663" stroke-width="2" stroke-linecap="round" stroke-linejoin="round"/>
<path d="M21.7058 21.0531C18.7689 17.3265 13.9374 11.3065 9.9584 12.262C12.8005 9.1087 28.0531 15.9887 21.7058 21.0531Z" stroke="#3B3663" stroke-width="2" stroke-linecap="round" stroke-linejoin="round"/>
<path d="M31.7478 74.8506C31.0847 76.3795 29.5689 77.1439 27.8636 77.4306C26.9163 77.5262 25.4005 77.5262 24.6426 77.4306C22.2742 77.1439 20.3794 75.5195 20.3794 73.3217V71.6973H20.8531C24.1689 73.2262 27.8636 74.2773 31.7478 74.8506Z" fill="#221D4F" stroke="#3B3663" stroke-width="2" stroke-linecap="round" stroke-linejoin="round"/>
<path d="M53.5373 72.6533L52.6847 80.4889C52.6847 82.9733 50.6005 84.6933 48.0426 84.98C46.811 85.0755 44.5373 85.0755 43.4952 84.98C40.9373 84.6933 38.8531 82.9733 38.8531 80.4889L38.3794 75.2333C43.59 75.2333 48.7057 74.2778 53.5373 72.6533Z" fill="#221D4F" stroke="#3B3663" stroke-width="2" stroke-linecap="round" stroke-linejoin="round"/>
<path d="M83.8531 51.6309L82.7163 64.4353C82.7163 67.3975 80.7268 69.4042 78.3584 69.6909C77.2216 69.7864 75.0426 69.882 74.0005 69.6909C71.6321 69.3086 69.6426 67.3975 69.6426 64.5309L72.39 62.9064C77.2216 60.0398 81.011 56.122 83.7584 51.6309H83.8531Z" stroke="#3B3663" stroke-width="2" stroke-linecap="round" stroke-linejoin="round"/>
<path d="M49.3689 46.8527C46.5268 37.8705 36.8636 29.8438 35.6321 28.8882L35.5373 28.7927C35.9163 28.506 45.6742 22.5816 50.6005 28.3149C55.7163 34.0482 49.3689 46.8527 49.3689 46.8527Z" stroke="#3B3663" stroke-width="2" stroke-linecap="round" stroke-linejoin="round"/>
<path d="M65.3794 11.1152C65.0005 11.4974 64.4321 11.5929 63.8636 11.4018C61.0215 10.6374 48.4215 6.71961 37.9057 16.1796C37.9057 16.1796 35.9163 18.2818 34.8742 16.5618C34.4952 15.9885 34.7794 15.1285 35.1584 14.4596C37.6215 11.1152 46.2426 3.56628 62.8215 8.05739C63.2952 8.15294 65.3794 8.72628 65.8531 9.49072C66.0426 10.0641 65.7584 10.8285 65.3794 11.1152Z" stroke="#3B3663" stroke-width="2" stroke-linecap="round" stroke-linejoin="round"/>
<path d="M85.6531 3.75751C85.0847 3.66195 84.4216 3.75751 83.7584 3.85306C85.0847 2.41973 86.79 1.36862 88.8742 1.08195C86.1268 0.986396 83.3794 2.32417 81.6742 4.4264C78.9268 5.47751 76.7479 7.10195 75.3268 8.91751C75.8952 9.29973 76.5584 9.68195 77.1268 10.0642C78.0742 8.34417 79.3058 6.71973 80.6321 6.24195C80.5373 6.33751 80.5373 6.52862 80.4426 6.62417C79.4005 9.10862 81.011 11.8797 83.8531 12.3575C86.0321 12.7397 88.211 11.402 89.1584 9.5864C90.4847 7.19751 88.4952 4.04417 85.6531 3.75751ZM86.8847 9.49084C86.411 10.0642 85.7479 10.4464 85.0847 10.6375C83.8531 10.9242 82.3373 10.1597 81.9584 9.01306C81.5794 7.8664 81.9584 6.62417 82.5268 5.57306C84.2321 5.09529 85.7479 5.09528 86.6952 5.95529C87.7373 6.91084 87.8321 8.43973 86.8847 9.49084Z" fill="#3B3663" stroke="#3B3663" stroke-width="2" stroke-linecap="round" stroke-linejoin="round"/>
<path d="M21.8952 66.5377C19.4321 69.5955 14.3163 69.691 8.44258 66.0599C2.56889 62.3332 -0.178476 56.8866 2.37942 52.8732C4.74784 49.2421 10.7163 50.2932 16.7794 54.3066C22.8426 58.3199 24.7373 63.0021 21.8952 66.5377Z" fill="#0A043C" stroke="#3B3663" stroke-width="2" stroke-linecap="round" stroke-linejoin="round"/>
<path d="M9.01102 58.7015C8.91629 59.5615 8.63208 60.1348 8.15839 60.2304C7.4005 60.4215 6.6426 59.2748 6.26366 57.6504C5.97945 56.1215 6.26366 54.6882 7.02155 54.4971C7.11629 54.4971 7.21102 54.4971 7.4005 54.4971C8.06366 54.6882 8.63208 55.7393 8.91629 57.0771C9.01102 57.6504 9.01102 58.2237 9.01102 58.7015Z" fill="#10084A" stroke="#3B3663" stroke-width="2" stroke-linecap="round" stroke-linejoin="round"/>
<path d="M15.4531 64.053C14.5058 64.2441 13.3689 63.0974 12.99 61.473C12.611 59.9441 12.99 58.5107 13.9373 58.3196C14.8847 58.1285 16.0215 59.2752 16.4005 60.8996C16.8742 62.4285 16.4005 63.8619 15.4531 64.053Z" fill="#10084A" stroke="#3B3663" stroke-width="2" stroke-linecap="round" stroke-linejoin="round"/>
<path d="M49.6531 46.8533C47.0952 38.731 36.9584 30.2266 35.6321 29.1755L35.5373 29.0799C38.7584 26.0221 54.2005 20.3844 58.5584 30.991C62.2531 40.0688 49.6531 46.8533 49.6531 46.8533Z" stroke="#3B3663" stroke-width="2" stroke-linecap="round" stroke-linejoin="round"/>
<path d="M49.7479 46.8529C49.7479 46.8529 56.0005 32.9973 50.5058 28.6018C45.011 24.1107 39.3268 26.7862 39.3268 26.7862C39.3268 26.7862 54.011 20.2884 58.4637 31.1818C62.2531 40.3551 49.7479 46.8529 49.7479 46.8529Z" fill="#221D4F" stroke="#3B3663" stroke-width="2" stroke-linecap="round" stroke-linejoin="round"/>
<path d="M15.6426 41.693C15.5479 42.9353 14.9795 43.7953 14.2216 43.9864C12.99 44.273 11.6637 42.553 11.0953 40.1642C10.5268 37.7753 11.0953 35.673 12.3268 35.4819C12.5163 35.4819 12.7058 35.4819 12.8953 35.4819C13.9374 35.7686 14.9795 37.2975 15.4532 39.3042C15.6426 40.1642 15.6426 40.9286 15.6426 41.693Z" fill="#3B3663"/>
<path d="M28.4321 48.7641C27.2005 48.9552 25.8742 47.4263 25.3058 45.3241C24.7373 43.2219 25.3058 41.3108 26.5373 41.1196C27.7689 40.9285 29.0952 42.4574 29.6637 44.5596C30.1373 46.6619 29.6637 48.573 28.4321 48.7641Z" fill="#3B3663"/>
<path d="M23.411 62.4286C23.8847 59.9441 24.1689 57.173 24.1689 55.8352C24.1689 55.1663 24.0742 54.4974 23.6952 53.9241C23.6005 53.8286 23.5057 53.6374 23.3163 53.3508C20.6636 48.9552 15.8321 47.9997 13.3689 47.9041C12.5163 47.8085 11.6636 47.9997 10.9057 48.2863L5.69521 50.4841C5.411 48.4774 5.22153 46.3752 5.22153 44.3686C5.22153 37.6797 7.211 31.1819 10.9057 25.6397C11.0005 25.8308 11.0005 25.8308 11.0005 25.8308C14.7899 21.2441 21.8005 21.3397 21.8005 21.3397C22.4636 20.9574 22.9373 20.2885 23.1268 19.6197C23.6005 18.2819 23.2215 16.753 22.1794 15.7974C22.0847 15.7019 21.8952 15.5108 21.8005 15.4152L33.6426 8.53521C41.0321 4.23521 49.5584 2.22855 57.9899 3.08855C64.4321 3.75744 70.6847 5.85966 75.8005 9.29966L77.5057 10.5419C80.0636 12.5485 82.3373 14.8419 84.1373 17.613C87.1689 22.8685 88.5899 28.6019 88.5899 34.2397C88.5899 40.4508 86.8847 46.6619 83.5689 51.9174C80.8215 56.4086 76.9373 60.2308 72.1057 63.0974L69.2636 64.7219L61.9689 68.9263C59.3163 70.4552 56.4742 71.793 53.5373 72.8441C48.8005 74.5641 43.8742 75.4241 38.7584 75.5197C37.7163 75.5197 36.6742 75.5197 35.6321 75.4241C34.4005 75.3286 33.1689 75.233 32.0321 75.0419C28.1478 74.4685 24.4531 73.4174 21.2321 71.793C19.811 71.1241 18.011 70.073 16.7794 69.1174" stroke="#3B3663" stroke-width="2" stroke-linecap="round" stroke-linejoin="round"/>
</svg>
