<svg width="15" height="17" viewBox="0 0 15 17" fill="none" xmlns="http://www.w3.org/2000/svg">
<g filter="url(#filter0_b_2019_3039)">
<path d="M10.9926 16.6671H4.0086C1.46108 16.6671 0 15.1968 0 12.6333V4.0248C0 2.7775 0.36455 1.75205 1.05424 1.0593C1.74418 0.3663 2.76578 0 4.0086 0H10.9926C13.5395 0 15.0003 1.46698 15.0003 4.0248V12.6333C15.0003 13.9197 14.6509 14.9242 13.9617 15.6188C13.2716 16.3144 12.2726 16.6671 10.9926 16.6671ZM4.16646 11.4464C3.93683 11.4464 3.7281 11.5631 3.6081 11.7585C3.47472 11.9667 3.47472 12.2415 3.6081 12.4587C3.72864 12.6469 3.93745 12.7637 4.15303 12.7637C4.17985 12.7637 4.20696 12.7619 4.2336 12.7584H10.7667C11.0991 12.7251 11.3499 12.4457 11.3499 12.1086C11.3499 11.7664 11.0992 11.4831 10.7667 11.4498H4.2336C4.21129 11.4476 4.18873 11.4464 4.16646 11.4464ZM4.2336 7.6491C3.8748 7.6491 3.5829 7.941 3.5829 8.2998C3.5829 8.6581 3.8748 8.9496 4.2336 8.9496H10.7667C11.125 8.9496 11.4165 8.6581 11.4165 8.2998C11.4165 7.941 11.125 7.6491 10.7667 7.6491H4.2336ZM4.2336 3.8754V3.8835L4.23076 3.8845C3.87353 3.8845 3.5829 4.17555 3.5829 4.5333C3.5829 4.8916 3.8748 5.1831 4.2336 5.1831H6.7239C7.0827 5.1831 7.3746 4.88756 7.3746 4.5243C7.3746 4.1665 7.0827 3.8754 6.7239 3.8754H4.2336Z" fill="#0A043C"/>
</g>
<defs>
<filter id="filter0_b_2019_3039" x="-10" y="-10" width="35.0003" height="36.667" filterUnits="userSpaceOnUse" color-interpolation-filters="sRGB">
<feFlood flood-opacity="0" result="BackgroundImageFix"/>
<feGaussianBlur in="BackgroundImageFix" stdDeviation="5"/>
<feComposite in2="SourceAlpha" operator="in" result="effect1_backgroundBlur_2019_3039"/>
<feBlend mode="normal" in="SourceGraphic" in2="effect1_backgroundBlur_2019_3039" result="shape"/>
</filter>
</defs>
</svg>
