<svg width="31" height="29" viewBox="0 0 31 29" fill="none" xmlns="http://www.w3.org/2000/svg">
<g filter="url(#filter0_bd_2019_2213)">
<path d="M13.3331 19.6671C11.8979 19.6671 10.4037 19.2715 9.2336 18.5817C8.90359 18.3815 8.62606 18.2283 8.3103 18.2283C8.20414 18.2283 8.0999 18.2456 7.9916 18.2811L6.3086 18.7824C6.24586 18.802 6.18245 18.812 6.12014 18.812C5.95163 18.812 5.79964 18.7394 5.70314 18.6127C5.60308 18.4814 5.57518 18.3102 5.6246 18.1308L6.1835 16.2615C6.27719 15.9979 6.25586 15.724 6.125 15.51C5.38901 14.1554 5 12.7155 5 11.3457C5 9.20292 5.85995 7.08191 7.35935 5.52653C8.92996 3.89727 11.0576 3 13.3502 3C15.6069 3 17.714 3.8862 19.2836 5.49536C20.8206 7.07123 21.6671 9.13997 21.6671 11.3205C21.6671 13.7029 20.7378 15.8709 19.0502 17.425C17.503 18.8499 15.4192 19.6671 13.3331 19.6671ZM17.1581 10.2855C16.57 10.2855 16.0916 10.7647 16.0916 11.3538C16.0916 11.9429 16.57 12.4221 17.1581 12.4221C17.7462 12.4221 18.2246 11.9429 18.2246 11.3538C18.2246 10.7647 17.7462 10.2855 17.1581 10.2855ZM13.3025 10.2854C13.0238 10.2854 12.7601 10.3965 12.5602 10.5983C12.3604 10.7999 12.2504 11.0653 12.2504 11.3457C12.2504 11.9411 12.7189 12.4139 13.3169 12.4221C13.905 12.4221 14.3834 11.9429 14.3834 11.3538C14.3834 10.7647 13.905 10.2855 13.3169 10.2855L13.3025 10.2854ZM9.4748 10.2855C8.88673 10.2855 8.4083 10.7647 8.4083 11.3538C8.4083 11.9429 8.88673 12.4221 9.4748 12.4221C10.0629 12.4141 10.5413 11.9348 10.5413 11.3538C10.5413 10.7647 10.0629 10.2855 9.4748 10.2855Z" fill="#0A043C"/>
</g>
<defs>
<filter id="filter0_bd_2019_2213" x="-5" y="-7" width="36.6671" height="37.667" filterUnits="userSpaceOnUse" color-interpolation-filters="sRGB">
<feFlood flood-opacity="0" result="BackgroundImageFix"/>
<feGaussianBlur in="BackgroundImageFix" stdDeviation="5"/>
<feComposite in2="SourceAlpha" operator="in" result="effect1_backgroundBlur_2019_2213"/>
<feColorMatrix in="SourceAlpha" type="matrix" values="0 0 0 0 0 0 0 0 0 0 0 0 0 0 0 0 0 0 127 0" result="hardAlpha"/>
<feOffset dx="2" dy="4"/>
<feGaussianBlur stdDeviation="3.5"/>
<feComposite in2="hardAlpha" operator="out"/>
<feColorMatrix type="matrix" values="0 0 0 0 0 0 0 0 0 0 0 0 0 0 0 0 0 0 0.0784314 0"/>
<feBlend mode="normal" in2="effect1_backgroundBlur_2019_2213" result="effect2_dropShadow_2019_2213"/>
<feBlend mode="normal" in="SourceGraphic" in2="effect2_dropShadow_2019_2213" result="shape"/>
</filter>
</defs>
</svg>
