<svg width="24" height="31" viewBox="0 0 24 31" fill="none" xmlns="http://www.w3.org/2000/svg">
<g opacity="0.8">
<path d="M11.2 0.859489C4.8266 1.27282 0 6.85961 0 13.2462V22.1663C0 24.3795 1.7865 26.1663 3.99994 26.1663H5.33325C6.79993 26.1663 7.99994 24.9662 7.99994 23.4995V18.1661C7.99994 16.6996 6.79993 15.4996 5.33325 15.4996H2.66663V13.2195C2.66663 8.09948 6.6131 3.64623 11.7199 3.4995C17.0132 3.3529 21.3333 7.57958 21.3333 12.8329V15.4996H18.6667C17.2 15.4996 16 16.6996 16 18.1661V23.4995C16 24.9662 17.2 26.1663 18.6667 26.1663H21.3333V27.4995H13.3334C12.6001 27.4995 12.0001 28.0996 12.0001 28.8329C12.0001 29.5662 12.6001 30.1663 13.3334 30.1663H20C22.2134 30.1663 23.9999 28.3796 23.9999 26.1663V12.8329C23.9999 5.93957 18.1866 0.406242 11.2 0.859489Z" fill="#0A043C"/>
</g>
</svg>
