<svg width="18" height="15" viewBox="0 0 18 15" fill="none" xmlns="http://www.w3.org/2000/svg">
<path d="M4.69434 6H4.47705L4.07129 8.0307H5.10059L4.69434 6Z" fill="#0A043C"/>
<path d="M12.9072 6C13.1265 6.58893 13.4182 7.06549 13.7407 7.47119C14.0637 7.06549 14.3889 6.58881 14.6082 6H12.9072Z" fill="#0A043C"/>
<path d="M15.8057 14.2492H8.21289L10.4392 11.7048C10.7096 11.3991 10.8394 10.9995 10.8149 10.5491L9.50106 0H15.8057C16.6312 0 17.3286 0.713125 17.3286 1.55727V12.7262C17.3286 13.566 16.6454 14.2492 15.8057 14.2492ZM13.7408 8.57233C14.0295 8.83711 14.3145 9.05533 14.6155 9.28586C14.7278 9.37166 14.8548 9.46888 14.9806 9.56813C15.0703 9.64009 15.1829 9.67973 15.2978 9.67973C15.4533 9.67973 15.5976 9.61029 15.6942 9.48929C15.7789 9.38344 15.8175 9.25089 15.8024 9.11623C15.7875 8.98162 15.7208 8.86075 15.6145 8.7758C15.4986 8.6842 15.3841 8.59651 15.2566 8.49961C14.9873 8.29389 14.7084 8.08115 14.4474 7.84244C15.0169 7.15696 15.4168 6.42985 15.6701 5.61843H15.8057C16.0854 5.61843 16.3132 5.39069 16.3132 5.1108C16.3132 4.83087 16.0854 4.60313 15.8057 4.60313H14.2485V4.0955C14.2485 3.81557 14.0207 3.58787 13.7408 3.58787C13.4611 3.58787 13.2331 3.81557 13.2331 4.0955V4.60313H11.7101C11.4302 4.60313 11.2026 4.83087 11.2026 5.1108C11.2026 5.39069 11.4302 5.61843 11.7101 5.61843H11.8458C12.1091 6.46226 12.5091 7.21035 13.0351 7.84244C12.7094 8.14008 12.389 8.39191 12.0494 8.65858L11.9005 8.7758C11.6822 8.95119 11.647 9.27125 11.8218 9.48929C11.9181 9.61029 12.0625 9.67973 12.218 9.67973C12.3329 9.67973 12.4456 9.64009 12.5353 9.56813L12.6775 9.45603C13.0549 9.1592 13.3814 8.90237 13.7408 8.57233Z" fill="#0A043C"/>
<path d="M9.52925 14.2827H1.5228C0.683011 14.2827 0 13.5995 0 12.7598V1.52374C0 0.68355 0.683011 0 1.5228 0H6.75208C7.51941 0 8.16898 0.573565 8.26337 1.33424C8.27901 1.45362 9.80756 13.7324 9.80594 13.7868C9.8018 13.9791 9.70598 14.0855 9.5848 14.2204L9.57006 14.2368C9.55675 14.2516 9.54291 14.267 9.52925 14.2827ZM4.06103 3.62217C3.82011 3.62217 3.6112 3.79368 3.56374 4.02997L2.54758 9.10643C2.49293 9.38133 2.67163 9.64925 2.94599 9.70378C2.98033 9.71074 3.01503 9.71429 3.04937 9.71429C3.28848 9.71429 3.49632 9.5426 3.54342 9.30609L3.86776 7.68333H5.30335L5.62769 9.30609C5.67479 9.54246 5.88389 9.71402 6.1248 9.71402C6.15842 9.71402 6.19222 9.71052 6.22494 9.70378C6.35834 9.67739 6.47323 9.60067 6.54838 9.48781C6.62371 9.37503 6.6505 9.23966 6.62353 9.10643L5.60827 4.02997C5.56063 3.79368 5.35118 3.62217 5.11008 3.62217H4.06103Z" fill="#0A043C"/>
</svg>
