<svg width="18" height="17" viewBox="0 0 18 17" fill="none" xmlns="http://www.w3.org/2000/svg">
<path d="M6.57946 7.69167C6.21488 7.69167 5.9266 7.975 5.9266 8.33333C5.9266 8.68333 6.21488 8.975 6.57946 8.975H11.6667V12.9583C11.6667 15 9.97942 16.6667 7.89367 16.6667H3.76453C1.68726 16.6667 0 15.0083 0 12.9667V3.70833C0 1.65833 1.69573 0 3.77302 0H7.91058C9.97942 0 11.6667 1.65833 11.6667 3.7V7.69167H6.57946Z" fill="#523EE8"/>
<path d="M14.692 5.18647L17.1253 7.61147C17.2503 7.73647 17.317 7.8948 17.317 8.0698C17.317 8.23647 17.2503 8.40314 17.1253 8.5198L14.692 10.9448C14.567 11.0698 14.4003 11.1365 14.242 11.1365C14.0753 11.1365 13.9087 11.0698 13.7837 10.9448C13.5337 10.6948 13.5337 10.2865 13.7837 10.0365L15.117 8.71147H11.667V7.42814H15.117L13.7837 6.10314C13.5337 5.85314 13.5337 5.4448 13.7837 5.1948C14.0337 4.93647 14.442 4.93647 14.692 5.18647Z" fill="#523EE8"/>
</svg>
