<svg width="15" height="17" viewBox="0 0 15 17" fill="none" xmlns="http://www.w3.org/2000/svg">
<g filter="url(#filter0_b_2019_2114)">
<path d="M7.06596 16.6663C6.92662 16.6663 6.78731 16.6569 6.6519 16.6383C6.13151 16.5629 5.63793 16.3519 5.2245 16.0281C4.88102 15.7912 4.66433 15.4258 4.6449 15.0507C4.6449 14.6182 5.04769 14.4347 5.3856 14.3568C5.61629 14.308 6.4381 14.2907 7.07175 14.2907C7.70541 14.2907 8.52722 14.308 8.7579 14.3568C9.09581 14.4347 9.4986 14.6182 9.4986 15.0507C9.4792 15.4251 9.26287 15.7908 8.9199 16.029C8.50624 16.3521 8.01263 16.5628 7.4925 16.6383C7.34886 16.6569 7.20535 16.6663 7.06596 16.6663ZM7.0839 13.3281C5.63799 13.3281 4.34678 13.261 3.1365 13.1229C2.2276 13.0478 1.34681 12.6184 0.72 11.9448C0.24896 11.3933 0 10.7081 0 9.963C0 9.13388 0.19901 8.50417 0.6084 8.0379C1.26292 7.29711 1.4949 6.67583 1.4949 5.6637V5.3082C1.4949 3.97122 1.80467 3.03983 2.5641 2.0934C3.62002 0.80214 5.33742 0 7.0461 0H7.1208C8.89126 0 10.6373 0.83801 11.6775 2.187C12.3845 3.09828 12.6729 4.00256 12.6729 5.3082V5.6637C12.6729 6.65327 12.9044 7.27456 13.5576 8.0379C13.9676 8.50303 14.1669 9.13274 14.1669 9.963C14.1669 10.7088 13.9182 11.394 13.4478 11.9448C12.8191 12.6185 11.9383 13.0479 11.0313 13.1229C9.78078 13.2295 8.43705 13.3281 7.0839 13.3281Z" fill="#0A043C"/>
</g>
<defs>
<filter id="filter0_b_2019_2114" x="-10" y="-10" width="34.1669" height="36.6665" filterUnits="userSpaceOnUse" color-interpolation-filters="sRGB">
<feFlood flood-opacity="0" result="BackgroundImageFix"/>
<feGaussianBlur in="BackgroundImageFix" stdDeviation="5"/>
<feComposite in2="SourceAlpha" operator="in" result="effect1_backgroundBlur_2019_2114"/>
<feBlend mode="normal" in="SourceGraphic" in2="effect1_backgroundBlur_2019_2114" result="shape"/>
</filter>
</defs>
</svg>
