<svg width="16" height="18" viewBox="0 0 16 18" fill="none" xmlns="http://www.w3.org/2000/svg">
<path d="M12.5654 1.06393C9.68573 -0.354645 6.31476 -0.354645 3.43469 1.06393C1.58685 1.97433 0.334351 3.77792 0.123536 5.83774L0.0908209 6.15988C-0.0202631 7.24374 -0.0293574 8.33566 0.0630499 9.42136L0.0942388 9.78415C0.144837 10.3785 0.173829 10.7214 0.230897 11.0492C0.539734 12.8288 1.46747 14.4395 2.84821 15.5948C3.10236 15.8076 3.38367 16.0038 3.8714 16.3443L4.12225 16.5195C4.77167 16.973 5.16443 17.2472 5.56586 17.4415C7.10413 18.186 8.89612 18.186 10.4343 17.4415C10.8359 17.2472 11.2284 16.973 11.8778 16.5195L12.1287 16.3445C12.6166 16.0038 12.8977 15.8076 13.152 15.5948C14.5326 14.4395 15.4607 12.8288 15.7695 11.0492C15.8263 10.7214 15.8556 10.3785 15.9062 9.78415L15.937 9.42136C16.0298 8.33566 16.0204 7.24374 15.9095 6.15988L15.8766 5.83774C15.6657 3.77792 14.4136 1.97433 12.5654 1.06393Z" fill="#0A043C"/>
<path d="M10.9704 6.66011C11.2405 6.91438 11.2551 7.34162 11.0031 7.61409L7.80295 11.0755C7.67935 11.2093 7.50723 11.2867 7.32565 11.2897C7.14438 11.2929 6.96988 11.2216 6.84164 11.0922L5.01303 9.24604C4.75168 8.98249 4.75168 8.55513 5.01303 8.29158C5.27396 8.02803 5.69724 8.02803 5.95847 8.29158L7.29758 9.64363L10.0256 6.69306C10.2774 6.42048 10.7006 6.40559 10.9704 6.66011Z" fill="white"/>
</svg>
