<svg width="16" height="17" viewBox="0 0 16 17" fill="none" xmlns="http://www.w3.org/2000/svg">
<g filter="url(#filter0_b_2019_2965)">
<path d="M8.49583 16.6671H7.33843C6.34473 16.6671 5.56633 15.9164 5.56633 14.958C5.54928 14.136 4.83173 13.4415 3.99943 13.4415C3.68947 13.4415 3.44453 13.5042 3.25063 13.6332C2.99401 13.7899 2.65623 13.8834 2.34703 13.8834C1.7277 13.8834 1.14696 13.5513 0.831432 13.0167L0.243732 12.0168C-0.0750076 11.4686 -0.0815576 10.814 0.226632 10.3086C0.366092 10.0535 0.620802 9.80723 0.907932 9.6498C1.1574 9.52836 1.31316 9.32196 1.44433 9.117C1.64748 8.77541 1.70381 8.37146 1.60293 7.97961C1.49958 7.57815 1.24668 7.24215 0.890832 7.0335C0.487322 6.80588 0.199372 6.43635 0.0800524 5.99299C-0.0402776 5.54586 0.0239224 5.07765 0.260832 4.6746L0.831432 3.6918C1.15667 3.14854 1.72601 2.82422 2.35443 2.82422C2.65961 2.82422 2.9636 2.90513 3.23353 3.0582C3.45952 3.18039 3.71787 3.24498 3.98064 3.24498C4.54985 3.24498 5.08262 2.95304 5.37103 2.4831C5.51679 2.23307 5.58251 1.98628 5.56633 1.7496C5.55025 1.44408 5.63495 1.13053 5.80483 0.8667C6.1205 0.349 6.69815 0.01689 7.31233 0H8.51293C9.12236 0 9.70345 0.3321 10.0294 0.8667C10.1506 1.0648 10.2887 1.37878 10.2589 1.7496C10.2427 1.98685 10.3087 2.23364 10.4551 2.4831C10.743 2.95304 11.2766 3.24498 11.8479 3.24498C12.112 3.24498 12.3723 3.18039 12.6007 3.0582C12.8678 2.90513 13.1703 2.82422 13.4755 2.82422C14.0975 2.82422 14.6793 3.15666 14.9938 3.6918L15.5644 4.6746C15.8051 5.07663 15.872 5.54379 15.7528 5.99002C15.6339 6.43472 15.3433 6.8053 14.9344 7.0335C14.5777 7.24293 14.3252 7.57978 14.2236 7.98197C14.1246 8.37357 14.1837 8.77667 14.3899 9.117C14.5067 9.31037 14.6607 9.52489 14.9173 9.6498C15.2498 9.82655 15.4762 10.1056 15.6076 10.3086C15.9151 10.8128 15.9088 11.4354 15.5905 12.0168L14.9938 13.0167C14.6831 13.5432 14.0917 13.8834 13.4872 13.8834C13.1731 13.8834 12.8441 13.7922 12.5845 13.6332C12.3824 13.5042 12.1372 13.4415 11.8348 13.4415C10.9924 13.4415 10.2854 14.1218 10.2589 14.958C10.2589 15.9164 9.48448 16.6671 8.49583 16.6671ZM7.92613 5.9832C6.59218 5.9832 5.50693 7.0414 5.50693 8.3421C5.50693 9.63784 6.59218 10.692 7.92613 10.692C9.26755 10.692 10.3183 9.6598 10.3183 8.3421C10.3183 7.70816 10.0715 7.11501 9.62342 6.67192C9.17424 6.22779 8.57147 5.9832 7.92613 5.9832Z" fill="#0A043C"/>
</g>
<defs>
<filter id="filter0_b_2019_2965" x="-10" y="-10" width="35.8338" height="36.667" filterUnits="userSpaceOnUse" color-interpolation-filters="sRGB">
<feFlood flood-opacity="0" result="BackgroundImageFix"/>
<feGaussianBlur in="BackgroundImageFix" stdDeviation="5"/>
<feComposite in2="SourceAlpha" operator="in" result="effect1_backgroundBlur_2019_2965"/>
<feBlend mode="normal" in="SourceGraphic" in2="effect1_backgroundBlur_2019_2965" result="shape"/>
</filter>
</defs>
</svg>
