<svg width="22" height="16" viewBox="0 0 22 16" fill="none" xmlns="http://www.w3.org/2000/svg">
<path fill-rule="evenodd" clip-rule="evenodd" d="M14.6025 5.45817C15.1336 6.16667 15.4494 7.04647 15.4494 7.99923C15.4494 8.95198 15.1334 9.83178 14.6025 10.5403C14.3544 10.8691 14.4211 11.3385 14.7509 11.5866C15.0807 11.8337 15.5492 11.7669 15.7973 11.4371C16.5168 10.4796 16.9441 9.2886 16.9441 7.99923C16.9441 6.70987 16.5166 5.51889 15.7973 4.56132C15.5492 4.2315 15.0808 4.16478 14.7509 4.41185C14.4211 4.65991 14.3544 5.12936 14.6025 5.45817Z" fill="#523EE8"/>
<path fill-rule="evenodd" clip-rule="evenodd" d="M18.0941 3.46501C19.0438 4.72853 19.6058 6.29899 19.6058 7.9992C19.6058 9.69941 19.0438 11.2696 18.0941 12.5334C17.846 12.8622 17.9128 13.3316 18.2426 13.5797C18.5724 13.8268 19.0418 13.7601 19.2889 13.4302C20.426 11.9175 21.1006 10.0362 21.1006 7.9992C21.1006 5.96246 20.426 4.08101 19.2889 2.56816C19.0418 2.23834 18.5724 2.17161 18.2426 2.41868C17.9128 2.66674 17.846 3.1362 18.0941 3.46501Z" fill="#523EE8"/>
<path fill-rule="evenodd" clip-rule="evenodd" d="M13.4525 1.744C13.4525 1.12222 13.1217 0.548204 12.5835 0.236238C12.0464 -0.0767277 11.3827 -0.0787342 10.8437 0.230226L6.27793 2.83902C5.78864 3.11813 5.2346 3.26559 4.67159 3.26559H2.74043C2.01389 3.26559 1.31641 3.55453 0.802254 4.06784C0.289085 4.58199 0 5.27966 0 6.00601V9.99194C0 10.7185 0.28894 11.416 0.802254 11.9301C1.31641 12.4433 2.01406 12.7324 2.74043 12.7324H4.67159C5.23464 12.7324 5.78864 12.8798 6.27793 13.1589L10.8437 15.7677C11.3829 16.0767 12.0465 16.0747 12.5835 15.7617C13.1217 15.4498 13.4525 14.8759 13.4525 14.254V1.744ZM11.9578 1.744V14.2542C11.9578 14.3429 11.9109 14.4245 11.8332 14.4694C11.7564 14.5142 11.6618 14.5142 11.5851 14.4704L7.01929 11.8616C6.30481 11.453 5.4947 11.2378 4.67157 11.2378H2.74039C2.40959 11.2378 2.09361 11.1064 1.85957 10.8731C1.62634 10.6389 1.4949 10.3231 1.4949 9.99232V6.00639C1.4949 5.67557 1.62634 5.35959 1.85957 5.12555C2.09379 4.89233 2.40959 4.76088 2.74039 4.76088H4.67157C5.49466 4.76088 6.30476 4.54567 7.01929 4.13714L11.5851 1.52834C11.6618 1.48447 11.7564 1.48447 11.8332 1.52934C11.9109 1.57422 11.9578 1.65541 11.9578 1.744Z" fill="#523EE8"/>
</svg>
