<svg width="80" height="13" viewBox="0 0 80 13" fill="none" xmlns="http://www.w3.org/2000/svg">
<path fill-rule="evenodd" clip-rule="evenodd" d="M5.14053 3.90858C5.25479 3.90673 5.36537 3.94975 5.44849 4.02839C5.53189 4.10914 5.57833 4.22051 5.57675 4.33662V5.83293C5.57569 6.07361 5.38068 6.2681 5.14053 6.26889H3.98597V12.2304C3.98465 12.4708 3.78989 12.6653 3.54974 12.6663H1.68477C1.44436 12.665 1.25012 12.4705 1.24881 12.2304V6.26889H0.436524C0.196114 6.2681 0.00109186 6.07361 3.90034e-05 5.83293V4.3361C-0.00154028 4.21998 0.0448998 4.10862 0.128556 4.02813C0.211427 3.94922 0.321992 3.90621 0.436524 3.90805H1.24881V3.17309C1.23984 2.32149 1.59451 1.50657 2.22392 0.932593C2.85569 0.320611 3.70491 -0.0148042 4.58449 0.000501755H4.90962C5.15003 0.00102961 5.34505 0.195787 5.34584 0.436463V1.93303C5.34505 2.17371 5.15028 2.36873 4.90962 2.36952H4.66155C4.48077 2.36873 4.30687 2.44289 4.18257 2.57457C4.05299 2.70705 3.98227 2.88571 3.98597 3.0707V3.90911L5.14053 3.90858ZM15.3849 3.90861C15.6253 3.90993 15.8198 4.10469 15.8208 4.3451V12.2291C15.8195 12.4692 15.625 12.6637 15.3849 12.665H13.5204C13.28 12.664 13.0853 12.4695 13.0842 12.2291V11.8528C12.3643 12.4819 11.4404 12.8281 10.4843 12.8276C9.33578 12.8316 8.23902 12.3497 7.46527 11.5007C5.73172 9.72072 5.73172 6.88354 7.46527 5.10328C8.23902 4.25458 9.33578 3.7727 10.4843 3.7764C11.4404 3.77587 12.3643 4.12237 13.0842 4.75176V4.3414C13.0847 4.10073 13.2798 3.90571 13.5204 3.90491L15.3849 3.90861ZM11.0142 10.4757C11.5847 10.4829 12.1326 10.2538 12.5282 9.84264C13.3616 8.98497 13.3616 7.62008 12.5282 6.76241C11.6977 5.924 10.3449 5.91767 9.50653 6.7479C9.50337 6.75123 9.50009 6.75445 9.49685 6.75764L9.49202 6.76241C8.65836 7.61982 8.65836 8.98523 9.49202 9.84264C9.89024 10.2549 10.4413 10.4839 11.0142 10.4757ZM22.4059 3.7803C23.3214 3.77423 24.2049 4.11651 24.8773 4.73746H24.8763C25.5671 5.29851 25.9691 6.14035 25.9714 7.03022V12.228C25.9757 12.3425 25.9326 12.4536 25.8522 12.5352C25.769 12.6199 25.6542 12.6666 25.5355 12.6637H23.6713C23.5576 12.6658 23.4483 12.6191 23.3712 12.5352C23.2818 12.4586 23.2322 12.3457 23.2359 12.228V7.67044C23.2409 7.25796 23.0804 6.86106 22.7904 6.56813L22.7886 6.56628C22.1866 5.96539 21.2115 5.96618 20.6106 6.56813C20.3153 6.85816 20.1511 7.25638 20.1562 7.67044V12.228C20.1614 12.3428 20.1184 12.4541 20.0371 12.5352C19.9569 12.6185 19.8458 12.665 19.73 12.6637H17.8658C17.747 12.6663 17.6325 12.6199 17.5494 12.5352C17.4676 12.4544 17.4235 12.343 17.428 12.228V4.3907C17.428 4.11915 17.6478 3.89906 17.9194 3.89906H19.73C19.8477 3.898 19.9598 3.94841 20.0371 4.03708C20.1161 4.11941 20.1588 4.22999 20.1562 4.34426V4.68732C20.7523 4.0925 21.5641 3.76526 22.4059 3.7803ZM34.4321 9.53304C34.5805 9.41455 34.7934 9.42405 34.9306 9.55521L36.2921 10.857C36.3644 10.9219 36.4074 11.0133 36.4111 11.1101C36.413 11.2101 36.3795 11.3078 36.3164 11.3853C34.0912 13.4295 30.6301 13.2825 28.5863 11.0573C27.6581 10.0471 27.1438 8.72525 27.1443 7.35376C27.1501 4.33238 29.5978 1.88446 32.6192 1.87839C33.9912 1.86467 35.3157 2.38191 36.3153 3.32192C36.3784 3.3995 36.4122 3.49714 36.4101 3.59716C36.4064 3.69428 36.3634 3.78559 36.291 3.85024L34.9296 5.15206C34.7926 5.28321 34.5794 5.29271 34.4311 5.17422C33.9247 4.74486 33.2802 4.51263 32.6163 4.51975C31.0508 4.51896 29.7812 5.787 29.7801 7.35245C29.7793 8.91789 31.0476 10.1875 32.6128 10.1883H32.6163C33.2802 10.1957 33.9247 9.96346 34.4311 9.5341L34.4321 9.53304ZM44.5896 0.803155C45.6562 0.803155 46.5641 1.18079 47.3133 1.93396C48.0685 2.68317 48.4441 3.59098 48.4441 4.65766C48.4441 5.42693 48.2472 6.1157 47.8535 6.72241C47.703 6.95543 47.5223 7.17842 47.3133 7.38717C46.7649 7.93555 46.1302 8.28311 45.4132 8.42957C45.1501 8.48578 44.8748 8.51191 44.5896 8.51191H41.7556C41.6975 8.51797 41.6471 8.54014 41.6009 8.58026C41.5547 8.62644 41.5307 8.6808 41.5307 8.74493V12.1835C41.5307 12.3102 41.4885 12.4187 41.4022 12.5028C41.3098 12.5955 41.1992 12.6417 41.0728 12.6417H38.9136C38.7848 12.6417 38.6767 12.5955 38.584 12.5028C38.4977 12.4187 38.4555 12.3102 38.4555 12.1835V1.26102C38.4555 1.13461 38.4977 1.028 38.584 0.941702C38.6767 0.849338 38.7848 0.803155 38.9136 0.803155H44.5896ZM44.6518 5.70191C44.8648 5.70191 45.0456 5.62776 45.1963 5.47707C45.3227 5.34459 45.3971 5.18995 45.4132 5.01525C45.4171 4.9849 45.4193 4.95481 45.4193 4.92473V4.39851C45.4193 4.18555 45.3448 4.00293 45.1963 3.85409C45.0456 3.7034 44.8648 3.62925 44.6518 3.62925H41.7637C41.7014 3.62925 41.6471 3.64931 41.6009 3.68942C41.5547 3.7356 41.5307 3.78996 41.5307 3.85409V5.47707C41.5307 5.53539 41.5547 5.58764 41.6009 5.63382C41.6471 5.68001 41.7014 5.70191 41.7637 5.70191H44.6518ZM53.8525 3.66286C55.143 3.66286 56.2435 4.10938 57.1539 5.00241C58.0641 5.89544 58.5193 6.97268 58.5193 8.23465C58.5193 9.49635 58.0641 10.5738 57.1539 11.4666C56.2435 12.3596 55.143 12.8062 53.8525 12.8062C52.5676 12.8062 51.47 12.3596 50.5599 11.4666C49.6494 10.5738 49.1944 9.49635 49.1944 8.23465C49.1944 6.97268 49.6494 5.89544 50.5599 5.00241C51.47 4.10938 52.5676 3.66286 53.8525 3.66286ZM53.8525 10.4469C54.3824 10.4469 54.8348 10.231 55.2095 9.79877C55.5837 9.36677 55.7711 8.84531 55.7711 8.23465C55.7711 7.62398 55.5837 7.10252 55.2095 6.67025C54.8348 6.23825 54.3824 6.02212 53.8525 6.02212C53.3282 6.02212 52.8787 6.23825 52.5045 6.67025C52.1298 7.10252 51.9427 7.62398 51.9427 8.23465C51.9427 8.84531 52.1298 9.36677 52.5045 9.79877C52.8787 10.231 53.3282 10.4469 53.8525 10.4469ZM61.1886 0.232464C61.5802 0.232464 61.9135 0.373122 62.1909 0.656286C62.4719 0.931532 62.6147 1.26695 62.6147 1.65857C62.6147 2.05627 62.4719 2.39169 62.1909 2.66904C61.9135 2.94614 61.5802 3.08468 61.1886 3.08468C60.7909 3.08468 60.4534 2.94614 60.1763 2.66904C59.895 2.39169 59.7543 2.05627 59.7543 1.65857C59.7543 1.26695 59.895 0.931532 60.1763 0.656286C60.4534 0.373122 60.7909 0.232464 61.1886 0.232464ZM62.1305 3.79167C62.2511 3.79167 62.3556 3.836 62.4418 3.9223C62.5282 4.00859 62.5704 4.1131 62.5704 4.2337V12.2016C62.5704 12.3219 62.5282 12.4264 62.4418 12.513C62.3556 12.5993 62.2511 12.6415 62.1305 12.6415H60.2365C60.1159 12.6415 60.0135 12.5993 59.9272 12.513C59.8448 12.4264 59.8047 12.3219 59.8047 12.2016V4.2337C59.8047 4.1131 59.8448 4.00859 59.9272 3.9223C60.0135 3.836 60.1159 3.79167 60.2365 3.79167H62.1305ZM71.9016 4.63111C71.4717 4.24951 71.0038 3.98033 70.4977 3.82569C70.1501 3.71722 69.7867 3.66286 69.4048 3.66286C68.5171 3.66286 67.7599 3.96819 67.1313 4.57885V4.22338C67.1292 4.107 67.0891 4.00646 67.0107 3.92201C66.9466 3.85181 66.8701 3.80959 66.7859 3.79164C66.7598 3.78557 66.7294 3.78346 66.6993 3.78346H64.8154C64.689 3.78346 64.5823 3.8278 64.4961 3.91409C64.4137 3.99432 64.3736 4.09698 64.3736 4.22338V12.2013C64.3736 12.328 64.4137 12.4322 64.4961 12.5127C64.5823 12.599 64.689 12.6412 64.8154 12.6412H66.6993C66.7294 12.6412 66.7598 12.6391 66.7859 12.6333C66.8701 12.6172 66.9466 12.5768 67.0107 12.5127C67.073 12.4504 67.1113 12.3721 67.1232 12.2797C67.1292 12.2515 67.1313 12.2214 67.1313 12.1913V7.59575C67.1313 7.1619 67.2839 6.79033 67.5892 6.48104C67.8945 6.17571 68.26 6.02317 68.686 6.02317C69.1198 6.02317 69.4872 6.17571 69.7925 6.48104C70.0918 6.79033 70.2424 7.1619 70.2424 7.59575V12.2013C70.2424 12.328 70.2886 12.4322 70.381 12.5127C70.4153 12.5507 70.4554 12.579 70.4977 12.6011C70.5538 12.6272 70.614 12.6412 70.6824 12.6412H72.5663C72.693 12.6412 72.7994 12.599 72.8878 12.5127C72.968 12.4322 73.0084 12.328 73.0084 12.2013V6.94708C73.0084 6.05326 72.6387 5.28188 71.9016 4.63111ZM78.0449 10.205C77.9179 10.0783 77.8546 9.92549 77.8546 9.74683V6.1776H79.1683C79.2892 6.1776 79.3929 6.13458 79.4794 6.04802C79.5657 5.96173 79.609 5.85801 79.609 5.73688V4.23319C79.609 4.11232 79.5657 4.00861 79.4794 3.92232C79.3929 3.83576 79.2892 3.79248 79.1683 3.79248H77.8546V1.88264C77.8546 1.75597 77.8142 1.64935 77.7337 1.56279C77.6472 1.48204 77.5406 1.44193 77.4139 1.44193H75.5299C75.409 1.44193 75.3053 1.48204 75.2188 1.56279C75.138 1.64935 75.0979 1.75597 75.0979 1.88264V3.79248H74.4149C74.2941 3.79248 74.1903 3.83576 74.1041 3.92232C74.0175 4.00861 73.9742 4.11232 73.9742 4.23319V5.74559C73.9742 5.87253 74.0175 5.97598 74.1041 6.05673C74.1903 6.14329 74.2941 6.1863 74.4149 6.1863H75.0892V10.6457C75.0892 11.2563 75.2763 11.7664 75.6508 12.1752C76.0427 12.5959 76.5525 12.8062 77.1806 12.8062C78.0103 12.8062 78.7389 12.7054 79.367 12.5038C79.5282 12.423 79.609 12.2935 79.609 12.1148V10.7061C79.609 10.5852 79.5686 10.4815 79.4881 10.395C79.4016 10.3087 79.2979 10.2654 79.177 10.2654C79.1424 10.2654 79.1107 10.2683 79.0817 10.2741C78.8513 10.3549 78.6584 10.395 78.5027 10.395C78.3241 10.395 78.1715 10.3316 78.0449 10.205Z" fill="white"/>
</svg>
