<svg width="30" height="30" viewBox="0 0 30 30" fill="none" xmlns="http://www.w3.org/2000/svg">
<circle cx="15" cy="15" r="14.75" fill="#0A043C" stroke="#1C1743" stroke-width="0.5"/>
<path d="M22.0399 11.9799L13.8544 7.25233C13.2842 6.92416 12.6393 6.75 11.988 6.75C9.92747 6.75 8.25 8.42764 8.25 10.488V19.9416C8.25 21.5014 9.2097 22.8408 10.5706 23.401V16.0049H15.2468V13.6842H10.5706V10.488C10.5706 9.6625 11.2486 9.07074 11.988 9.07074C12.2234 9.07074 12.4653 9.13047 12.6942 9.26301L20.8795 13.9889C21.8228 14.5343 21.8228 15.8952 20.8795 16.4407L13.2361 20.8533V23.4624C13.45 23.3861 13.6572 23.2916 13.8544 23.1772L22.0399 18.4497C23.192 17.7849 23.9081 16.545 23.9081 15.214C23.9081 13.8845 23.192 12.6446 22.0399 11.9799Z" fill="white"/>
</svg>
