<svg width="40" height="40" viewBox="0 0 40 40" fill="none" xmlns="http://www.w3.org/2000/svg">
<circle cx="20" cy="20" r="20" fill="#523EE8"/>
<path d="M29.3865 15.9732L18.4725 9.66978C17.7123 9.23221 16.8524 9 15.984 9C13.2366 9 11 11.2368 11 13.984V26.5887C11 28.6685 12.2796 30.4544 14.0941 31.2014V21.3399H20.329V18.2456H14.0941V13.984C14.0941 12.8833 14.9981 12.0943 15.984 12.0943C16.2978 12.0943 16.6204 12.174 16.9256 12.3507L27.8393 18.6518C29.097 19.3791 29.097 21.1936 27.8393 21.9209L17.6481 27.8044V31.2832C17.9334 31.1815 18.2096 31.0555 18.4725 30.9029L29.3865 24.5995C30.9227 23.7132 31.8775 22.06 31.8775 20.2854C31.8775 18.5127 30.9227 16.8595 29.3865 15.9732Z" fill="white"/>
</svg>
