<svg width="30" height="30" viewBox="0 0 30 30" fill="none" xmlns="http://www.w3.org/2000/svg">
<path d="M15 0C23.2843 0 30 6.71573 30 15C30 23.2843 23.2843 30 15 30C6.71573 30 0 23.2843 0 15C0 6.71573 6.71573 0 15 0ZM19.4077 21.7485H10.5923C11.5702 25.3693 13.2701 27.7503 15 27.7503C16.73 27.7503 18.4297 25.3693 19.4077 21.7485ZM8.26353 21.7495L4.18042 21.7493C5.61771 24.0484 7.76755 25.8566 10.3207 26.8644C9.53743 25.6349 8.89104 24.0957 8.41562 22.3419L8.26353 21.7495ZM25.8197 21.7493L21.7366 21.7495C21.2509 23.7498 20.5496 25.4983 19.6777 26.8644C22.0728 25.9196 24.112 24.2713 25.5419 22.1745L25.8197 21.7493ZM7.64129 11.9995H2.60564L2.59852 12.0254C2.37042 12.9797 2.24966 13.9757 2.24966 15C2.24966 16.5841 2.53848 18.1005 3.06637 19.4998L7.82538 19.4992C7.61197 18.0758 7.49885 16.5637 7.49885 15C7.49885 13.9742 7.54754 12.9705 7.64129 11.9995ZM20.0946 11.9996H9.90541C9.8034 12.9599 9.74849 13.9643 9.74849 15C9.74849 16.589 9.8777 18.1043 10.108 19.4995H19.892C20.1224 18.1043 20.2515 16.589 20.2515 15C20.2515 13.9643 20.1966 12.9599 20.0946 11.9996ZM27.395 11.9983L22.3588 11.9995C22.4526 12.9705 22.5011 13.9742 22.5011 15C22.5011 16.5637 22.3881 18.0758 22.1746 19.4992L26.9337 19.4998C27.4615 18.1005 27.7503 16.5841 27.7503 15C27.7503 13.9661 27.6274 12.9609 27.395 11.9983ZM10.3223 3.13557L10.288 3.14865C7.21746 4.37053 4.73382 6.75113 3.37702 9.75046L7.9485 9.75101C8.41847 7.12223 9.2386 4.83369 10.3223 3.13557ZM15 2.24966L14.8265 2.2576C12.9287 2.4312 11.0953 5.4337 10.2438 9.75038H19.7563C18.9071 5.4458 17.0816 2.44805 15.1895 2.25912L15 2.24966ZM19.6793 3.13566L19.8395 3.39676C20.8432 5.06521 21.6053 7.25469 22.0515 9.75101L26.623 9.75046C25.3263 6.8838 23.0001 4.58234 20.1161 3.31754L19.6793 3.13566Z" fill="white"/>
</svg>
