<svg width="122" height="76" viewBox="0 0 122 76" fill="none" xmlns="http://www.w3.org/2000/svg">
<path d="M31.4413 70.4886L25.0878 67.069C20.661 66.9709 16.7655 64.7191 14.4071 61.3204L12.8201 60.4662L13.8844 60.5056C12.7071 58.5156 12.0317 56.194 12.0317 53.7142C12.0317 52.9892 12.0894 52.2782 12.2005 51.5845L6.17401 51.5319L16.3344 43.8936C18.7149 41.6974 21.8955 40.356 25.3899 40.356H107.142C114.519 40.356 120.5 46.3365 120.5 53.7142C120.5 58.9318 117.509 63.4506 113.148 65.6494L103.294 71.9021L31.4413 70.4886Z" fill="#E9E7FC" stroke="#C2BBF7" stroke-width="2" stroke-linecap="round" stroke-linejoin="round"/>
<path d="M1.5 61.5517C1.5 54.6482 7.09644 49.0518 14 49.0518H95.7499C102.653 49.0518 108.25 54.6482 108.25 61.5517C108.25 68.4553 102.653 74.0517 95.7499 74.0517H14C7.09643 74.0517 1.5 68.4553 1.5 61.5517Z" fill="white" stroke="#C2BBF7" stroke-width="2"/>
<path d="M38.9996 61.7114C38.9996 59.3642 40.9024 57.4614 43.2496 57.4614H91.9995C94.3467 57.4614 96.2495 59.3642 96.2495 61.7114C96.2495 64.0586 94.3467 65.9614 91.9995 65.9614H43.2496C40.9024 65.9614 38.9996 64.0586 38.9996 61.7114Z" fill="white" stroke="#C2BBF7" stroke-width="2"/>
<path d="M30.3306 43.084H96.031L93.0345 45.3743H27.334L30.3306 43.084Z" fill="#C2BBF7"/>
<path d="M32.6919 1.65183C32.5118 1.41161 32.2332 1.26505 31.9332 1.25264C31.6332 1.24022 31.3435 1.36327 31.1442 1.58778C30.8595 1.90833 30.7029 2.32151 30.7029 2.74968V42.711C30.7029 43.6768 31.487 44.4609 32.4528 44.4609H90.9125C91.8783 44.4609 92.6624 43.6768 92.6624 42.711V2.74968C92.6624 2.32258 92.5065 1.90923 92.2209 1.58777C92.0215 1.36333 91.7318 1.24035 91.4318 1.25279C91.1319 1.26524 90.8534 1.41179 90.6733 1.65198L88.7921 4.16041L86.7213 1.3999C86.5378 1.15534 86.2525 1.00814 85.9469 1.00033C85.6412 0.992513 85.3488 1.12494 85.1531 1.35982L82.732 4.26513L80.3103 1.36019C80.1145 1.12536 79.8221 0.99298 79.5165 1.00085C79.2108 1.00872 78.9256 1.15597 78.7422 1.40056L76.6724 4.16055L74.6012 1.40029C74.4177 1.15576 74.1324 1.00861 73.8268 1.00081C73.5212 0.99302 73.2288 1.12545 73.0331 1.3603L70.6124 4.26513L68.1907 1.36019C67.9949 1.12536 67.7025 0.99298 67.3969 1.00085C67.0912 1.00872 66.806 1.15597 66.6226 1.40056L64.5529 4.16044L62.4823 1.40045C62.2934 1.1487 61.9971 1.00055 61.6823 1.00056C61.3676 1.00058 61.0713 1.14875 60.8824 1.40052L58.8121 4.16055L56.7414 1.40038C56.5579 1.15582 56.2727 1.00862 55.967 1.00081C55.6614 0.993003 55.369 1.12543 55.1733 1.3603L52.7526 4.26513L50.3309 1.36019C50.1351 1.12537 49.8427 0.992996 49.5371 1.00085C49.2315 1.0087 48.9463 1.15591 48.7628 1.40047L46.6925 4.16055L44.6218 1.40038C44.4383 1.15582 44.1531 1.00862 43.8474 1.00081C43.5418 0.993003 43.2494 1.12543 43.0537 1.3603L40.633 4.26513L38.2113 1.36019C38.0155 1.12537 37.7231 0.992996 37.4175 1.00085C37.1119 1.0087 36.8267 1.15591 36.6432 1.40047L34.5731 4.16034L32.6919 1.65183Z" fill="white" stroke="#C2BBF7" stroke-width="2" stroke-linecap="round" stroke-linejoin="round"/>
<circle cx="12.5" cy="62.0864" r="2.75" fill="white" stroke="#C2BBF7" stroke-width="2"/>
<circle cx="23.75" cy="62.0864" r="2.75" fill="white" stroke="#C2BBF7" stroke-width="2"/>
<path d="M37.25 12.4268C37.25 11.8054 37.7537 11.3018 38.375 11.3018H72.125C72.7463 11.3018 73.25 11.8054 73.25 12.4268C73.25 13.0481 72.7463 13.5518 72.125 13.5518H38.375C37.7537 13.5518 37.25 13.0481 37.25 12.4268Z" fill="#F6F5FE"/>
<path d="M37.25 18.4268C37.25 17.8054 37.7537 17.3018 38.375 17.3018H54.125C54.7463 17.3018 55.25 17.8054 55.25 18.4268C55.25 19.0481 54.7463 19.5518 54.125 19.5518H38.375C37.7537 19.5518 37.25 19.0481 37.25 18.4268Z" fill="#F6F5FE"/>
<path d="M37.25 24.4268C37.25 23.8054 37.7537 23.3018 38.375 23.3018H54.125C54.7463 23.3018 55.25 23.8054 55.25 24.4268C55.25 25.0481 54.7463 25.5518 54.125 25.5518H38.375C37.7537 25.5518 37.25 25.0481 37.25 24.4268Z" fill="#F6F5FE"/>
<path d="M37.25 30.4268C37.25 29.8054 37.7537 29.3018 38.375 29.3018H63.125C63.7463 29.3018 64.25 29.8054 64.25 30.4268C64.25 31.0481 63.7463 31.5518 63.125 31.5518H38.375C37.7537 31.5518 37.25 31.0481 37.25 30.4268Z" fill="#F6F5FE"/>
<path d="M37.25 36.4268C37.25 35.8054 37.7537 35.3018 38.375 35.3018H63.125C63.7463 35.3018 64.25 35.8054 64.25 36.4268C64.25 37.0481 63.7463 37.5518 63.125 37.5518H38.375C37.7537 37.5518 37.25 37.0481 37.25 36.4268Z" fill="#F6F5FE"/>
</svg>
