<svg width="77" height="78" viewBox="0 0 77 78" fill="none" xmlns="http://www.w3.org/2000/svg">
<path d="M44.1 49L48.3 44.8C48.7 44.4 49.3 44.4 49.7 44.8L54 49C54.4 49.4 54.4 50 54 50.4L49.8 54.6C49.4 55 48.8 55 48.4 54.6L44.2 50.4C43.7 50 43.7 49.4 44.1 49Z" fill="white" stroke="#C2BBF7" stroke-width="2"/>
<path d="M48.3 53.2001L52.5 49.0001C53.7 47.8001 55.6 47.8001 56.7 49.0001L75.1 67.4001C76.3 68.6001 76.3 70.5001 75.1 71.6001L70.9 75.8001C69.7 77.0001 67.8 77.0001 66.7 75.8001L48.3 57.5001C47.1 56.3001 47.1 54.4001 48.3 53.2001Z" fill="#E9E7FC" stroke="#C2BBF7" stroke-width="2"/>
<path d="M28.5 56C43.6878 56 56 43.6878 56 28.5C56 13.3122 43.6878 1 28.5 1C13.3122 1 1 13.3122 1 28.5C1 43.6878 13.3122 56 28.5 56Z" fill="white" stroke="#C2BBF7" stroke-width="2"/>
<path d="M28.5 50C40.3741 50 50 40.3741 50 28.5C50 16.6259 40.3741 7 28.5 7C16.6259 7 7 16.6259 7 28.5C7 40.3741 16.6259 50 28.5 50Z" fill="white" stroke="#C2BBF7" stroke-width="2"/>
<path d="M29.8 17C32.1 17 33.9 17.6 35.3 18.9C36.7 20.2 37.4 21.8 37.4 24C37.4 26.4 36.7 28.1 35.2 29.3C33.7 30.4 31.7 31.3 29.2 31.3V32.7C29.2 33.5 28.5 34.2 27.7 34.2C26.9 34.2 26.2 33.5 26.2 32.7V29.8C26.2 29.3 26.6 28.8 27.2 28.8C29.5 28.8 31.2 28.5 32.5 27.8C33.8 27.1 34.4 25.9 34.4 24C34.4 22.7 34 21.6 33.2 20.8C32.4 20 31.3 19.6 29.9 19.6C28.5 19.6 27.4 20 26.6 20.7C26.1 21.1 25.8 21.7 25.6 22.3C25.4 23.1 24.7 23.8 23.9 23.8C23.1 23.8 22.4 23.1 22.6 22.3C22.7 21.5 23 20.8 23.4 20.2C24 19.2 24.9 18.4 26 17.8C27 17.3 28.3 17 29.8 17ZM27.6 40C27.1 40 26.6 39.8 26.2 39.5C25.8 39.1 25.6 38.7 25.6 38.2C25.6 37.7 25.8 37.2 26.2 36.9C26.6 36.5 27 36.4 27.6 36.4C28.1 36.4 28.5 36.6 28.9 36.9C29.3 37.3 29.5 37.7 29.5 38.2C29.5 38.7 29.3 39.2 28.9 39.5C28.6 39.8 28.2 40 27.6 40Z" fill="#C2BBF7"/>
</svg>
