<svg width="122" height="76" viewBox="0 0 122 76" fill="none" xmlns="http://www.w3.org/2000/svg">
<path d="M31.4411 70.4881L25.0876 67.0685C20.6608 66.9704 16.7653 64.7186 14.4069 61.3199L12.8199 60.4657L13.8842 60.5052C12.7069 58.5151 12.0315 56.1935 12.0315 53.7137C12.0315 52.9887 12.0892 52.2777 12.2003 51.584L6.17383 51.5314L16.3342 43.8931C18.7147 41.6969 21.8954 40.3555 25.3897 40.3555H107.142C114.519 40.3555 120.5 46.336 120.5 53.7137C120.5 58.9314 117.509 63.4501 113.148 65.6489L103.293 71.9016L31.4411 70.4881Z" fill="#221D4F" stroke="#3B3663" stroke-width="2" stroke-linecap="round" stroke-linejoin="round"/>
<path d="M1.5 61.5517C1.5 54.6482 7.09644 49.0518 14 49.0518H95.7499C102.653 49.0518 108.25 54.6482 108.25 61.5517C108.25 68.4553 102.653 74.0517 95.7499 74.0517H14C7.09643 74.0517 1.5 68.4553 1.5 61.5517Z" fill="#0A043C" stroke="#3B3663" stroke-width="2"/>
<rect x="38.9995" y="57.4609" width="57.2499" height="8.49999" rx="4.24999" fill="#0A043C" stroke="#3B3663" stroke-width="2"/>
<path d="M30.3305 43.084H96.031L93.0344 45.3743H27.334L30.3305 43.084Z" fill="#3B3663"/>
<path d="M32.6922 1.65183C32.512 1.41161 32.2335 1.26505 31.9335 1.25264C31.6335 1.24022 31.3438 1.36327 31.1444 1.58778C30.8597 1.90833 30.7031 2.32151 30.7031 2.74968V42.711C30.7031 43.6768 31.4873 44.4609 32.453 44.4609H90.9127C91.8785 44.4609 92.6626 43.6768 92.6626 42.711V2.74968C92.6626 2.32258 92.5067 1.90923 92.2211 1.58777C92.0217 1.36333 91.732 1.24035 91.4321 1.25279C91.1321 1.26524 90.8536 1.41179 90.6735 1.65198L88.7924 4.16041L86.7215 1.3999C86.538 1.15534 86.2528 1.00814 85.9471 1.00033C85.6415 0.992513 85.3491 1.12494 85.1533 1.35982L82.7323 4.26513L80.3106 1.36019C80.1148 1.12536 79.8223 0.99298 79.5167 1.00085C79.2111 1.00872 78.9258 1.15597 78.7424 1.40056L76.6727 4.16055L74.6014 1.40029C74.4179 1.15576 74.1327 1.00861 73.827 1.00081C73.5214 0.99302 73.229 1.12545 73.0333 1.3603L70.6126 4.26513L68.1909 1.36019C67.9952 1.12536 67.7027 0.99298 67.3971 1.00085C67.0915 1.00872 66.8062 1.15597 66.6228 1.40056L64.5532 4.16044L62.4825 1.40045C62.2937 1.1487 61.9973 1.00055 61.6826 1.00056C61.3679 1.00058 61.0715 1.14875 60.8827 1.40052L58.8124 4.16055L56.7417 1.40038C56.5582 1.15582 56.2729 1.00862 55.9673 1.00081C55.6617 0.993003 55.3692 1.12543 55.1735 1.3603L52.7528 4.26513L50.3311 1.36019C50.1354 1.12537 49.843 0.992996 49.5374 1.00085C49.2317 1.0087 48.9465 1.15591 48.7631 1.40047L46.6928 4.16055L44.622 1.40038C44.4386 1.15582 44.1533 1.00862 43.8477 1.00081C43.542 0.993003 43.2496 1.12543 43.0539 1.3603L40.6332 4.26513L38.2115 1.36019C38.0158 1.12537 37.7234 0.992996 37.4177 1.00085C37.1121 1.0087 36.8269 1.15591 36.6435 1.40047L34.5733 4.16034L32.6922 1.65183Z" fill="#0A043C" stroke="#3B3663" stroke-width="2" stroke-linecap="round" stroke-linejoin="round"/>
<circle cx="12.5" cy="62.0859" r="2.75" fill="#0A043C" stroke="#3B3663" stroke-width="2"/>
<circle cx="23.75" cy="62.0859" r="2.75" fill="#0A043C" stroke="#3B3663" stroke-width="2"/>
<path d="M37.25 12.4268C37.25 11.8054 37.7537 11.3018 38.375 11.3018H72.125C72.7463 11.3018 73.25 11.8054 73.25 12.4268C73.25 13.0481 72.7463 13.5518 72.125 13.5518H38.375C37.7537 13.5518 37.25 13.0481 37.25 12.4268Z" fill="#221D4F"/>
<path d="M37.25 18.4268C37.25 17.8054 37.7537 17.3018 38.375 17.3018H54.125C54.7463 17.3018 55.25 17.8054 55.25 18.4268C55.25 19.0481 54.7463 19.5518 54.125 19.5518H38.375C37.7537 19.5518 37.25 19.0481 37.25 18.4268Z" fill="#221D4F"/>
<path d="M37.25 24.4268C37.25 23.8054 37.7537 23.3018 38.375 23.3018H54.125C54.7463 23.3018 55.25 23.8054 55.25 24.4268C55.25 25.0481 54.7463 25.5518 54.125 25.5518H38.375C37.7537 25.5518 37.25 25.0481 37.25 24.4268Z" fill="#221D4F"/>
<path d="M37.25 30.4268C37.25 29.8054 37.7537 29.3018 38.375 29.3018H63.125C63.7463 29.3018 64.25 29.8054 64.25 30.4268C64.25 31.0481 63.7463 31.5518 63.125 31.5518H38.375C37.7537 31.5518 37.25 31.0481 37.25 30.4268Z" fill="#221D4F"/>
<path d="M37.25 36.4268C37.25 35.8054 37.7537 35.3018 38.375 35.3018H63.125C63.7463 35.3018 64.25 35.8054 64.25 36.4268C64.25 37.0481 63.7463 37.5518 63.125 37.5518H38.375C37.7537 37.5518 37.25 37.0481 37.25 36.4268Z" fill="#221D4F"/>
</svg>
