<svg width="17" height="16" viewBox="0 0 17 16" fill="none" xmlns="http://www.w3.org/2000/svg">
<path fill-rule="evenodd" clip-rule="evenodd" d="M8.85445 0C5.89739 0.00205352 3.20625 1.7075 1.94128 4.38118L1.65379 3.43965C1.56754 3.12648 1.24514 2.94269 0.931976 3.02894C0.618814 3.11416 0.435024 3.43759 0.521272 3.75075L0.529486 3.77848L1.24822 6.14618C1.34063 6.45113 1.65995 6.62671 1.96695 6.54149L4.28845 5.90798C4.60264 5.82275 4.78746 5.49933 4.70224 5.18616C4.61804 4.87197 4.29461 4.68613 3.98043 4.77135L2.92697 5.0609C4.35314 1.78862 8.16036 0.292627 11.4326 1.71777C14.7049 3.14394 16.2019 6.95219 14.7758 10.2234C13.3506 13.4957 9.54238 14.9927 6.2701 13.5666C4.46198 12.7791 3.11179 11.2081 2.60559 9.30142C2.52243 8.98723 2.20105 8.80036 1.88789 8.88353C1.5737 8.96567 1.3858 9.28704 1.46897 9.60123C2.55118 13.6805 6.73522 16.1109 10.8145 15.0287C14.8949 13.9475 17.3242 9.76243 16.243 5.68312C15.3549 2.33485 12.3259 0.00308028 8.86164 0H8.85445Z" fill="#C1C0CE"/>
<path fill-rule="evenodd" clip-rule="evenodd" d="M8.51434 3.59082C8.20034 3.59188 7.94534 3.86163 7.94434 4.19379V8.65472C7.94334 8.87263 8.05234 9.07468 8.23134 9.18364L10.9143 10.7979C11.1903 10.9629 11.5413 10.8603 11.6973 10.5684C11.8533 10.2764 11.7563 9.90509 11.4803 9.74006L9.08834 8.29822V4.19379C9.08734 3.85952 8.83034 3.58977 8.51434 3.59082Z" fill="white"/>
</svg>
