<svg width="248" height="249" viewBox="0 0 248 249" fill="none" xmlns="http://www.w3.org/2000/svg">
<path d="M57.7507 1.05859H52.9985V10.5582H62.5004V5.80835H57.7507V1.05859Z" fill="black"/>
<rect x="152.729" y="1.06152" width="9.50436" height="4.74762" fill="black"/>
<path d="M171.788 5.80835H176.535V10.5582H181.285V1.05859H167.036V10.5582H171.788V5.80835Z" fill="black"/>
<rect x="162.242" y="10.6387" width="4.74762" height="4.74762" fill="black"/>
<rect x="53.0015" y="15.2949" width="4.75675" height="9.49523" fill="black"/>
<rect x="57.7856" y="24.873" width="4.74762" height="4.74762" fill="black"/>
<rect x="53.0015" y="34.4502" width="9.50436" height="4.74762" fill="black"/>
<path d="M90.9968 48.6895H76.75V58.1891H81.4972V53.4392H86.2495V58.1891H90.9968V48.6895Z" fill="black"/>
<path d="M38.7839 58.1005H53.0309V53.3506H34.0342V62.8478H38.7839V58.1005Z" fill="black"/>
<rect x="95.7759" y="53.3496" width="4.75675" height="4.74762" fill="black"/>
<rect x="205.026" y="53.3496" width="4.74762" height="4.74762" fill="black"/>
<rect x="214.475" y="53.3496" width="4.75675" height="4.74762" fill="black"/>
<rect x="223.989" y="53.3496" width="4.74762" height="4.74762" fill="black"/>
<rect x="0.768555" y="53.3496" width="4.74762" height="9.49523" fill="black"/>
<path d="M162.229 110.302H157.477V105.552H152.727V96.0524H138.48V91.303H143.23V81.8032H133.731V77.0538H128.98V72.306H133.731V67.5541H138.48V62.8038H128.98V58.0568H143.23V48.5571H147.98V43.8069H143.23V39.0574H157.477V43.8069H162.229V34.3071H157.477V24.8083H162.229V20.0581H166.977V15.3086H171.729V10.5583H176.476V15.3086H181.226V10.5583H185.976V5.80884H190.725V1.05859H195.475V20.0581H190.725V24.8083H195.475V43.8069H190.725V48.5571H185.976V53.3065H190.725V58.0568H181.226V62.8038H176.476V77.0538H181.226V86.5527H176.476V91.303H171.729V58.0568H176.476V53.3065H181.226V43.8069H176.476V48.5571H157.477V58.0568H162.229V53.3065H166.977V62.8038H162.229V67.5541H166.977V81.8032H162.229V86.5527H152.727V91.303H157.477V96.0524H162.229V110.302ZM147.98 77.0538V81.8032H162.229V77.0538H147.98ZM147.98 67.5541H143.23V72.306H138.48V77.0538H147.98V67.5541ZM152.729 67.5558V72.3125H157.476V67.5558H152.729ZM152.727 58.0568V62.8038H157.477V58.0568H152.727ZM152.727 53.3065H147.98V58.0568H152.727V53.3065ZM181.226 34.3071V39.0574H190.725V34.3071H181.226ZM166.977 34.3071V39.0574H176.476V34.308L181.226 34.3071V29.5576H162.229V34.3071H166.977ZM190.725 24.8083H185.976V29.5576H190.725V24.8083ZM176.476 20.0613V24.8091H181.223V20.0613H176.476ZM166.977 20.0581V24.8083H171.729V20.0581H166.977ZM185.976 10.5583V15.3086H190.725V10.5583H185.976Z" fill="black"/>
<path d="M110.007 58.0577L105.257 58.0568V53.3065H109.924V43.8069H105.257V48.5571H91.0077V43.8069H81.5081V39.0574H76.7603V48.5571H62.511V39.0574H67.2588V34.3071H62.511V29.5576H67.2588V24.8083H62.511V20.0581H72.0107V24.8083H76.7603V15.3094L81.5081 15.3086V10.5583H76.7603V15.3094L67.2588 15.3086V5.80884H62.511V1.05859H81.5081V5.80884H86.2607V1.05859H91.0077V5.80884H95.7572V1.05859H100.51V5.80884H105.257V1.05859H110.007V5.80884H114.757V1.05859H119.507V10.5583H124.256V1.05859H138.506V5.80884H143.256V1.05859H148.005V10.5583H152.753V15.3086H157.502V20.0581H152.753V29.5576H148.005V34.3071H143.256V29.5576H138.938V53.5078H129.006V58.0559L119.507 58.0568V53.5078H110.007V58.0577ZM115.278 29.8395V48.401H133.839V29.8395H115.278ZM67.2588 39.0574V43.8069H72.0107V39.0574H67.2588ZM95.7572 34.3071V39.0574H105.257V34.3071H100.51V29.5576H105.257V24.8092L110.007 24.8083V20.0581H105.257V24.8092L86.2607 24.8083V29.5576H81.5081V34.3071H95.7572ZM72.01 29.5569V34.3047H76.7578V29.5569H72.01ZM143.256 15.3086H138.506V20.0581H143.256V15.3086ZM114.757 15.3086V20.0581H119.507V15.3086H114.757ZM91.0077 15.3086V20.0581H100.51V15.3094L105.257 15.3086V10.5583H100.51V15.3094L91.0077 15.3086ZM81.5081 15.3086V20.0581H86.2607V15.3094L91.0077 15.3086V10.5583H86.2607V15.3094L81.5081 15.3086ZM124.252 15.3044V20.0522H129V15.3044H124.252ZM110.007 10.5583V15.3086H114.757V10.5583H110.007ZM148.005 10.5583H143.256V15.3086H148.005V10.5583ZM76.7603 5.80884H72.0107V10.5583H76.7603V5.80884ZM129.009 5.80969V10.5575H133.757V5.80969H129.009Z" fill="black"/>
<path d="M76.7869 67.5977V62.8478H72.0372V58.1005H67.2845V53.3506H57.7876V58.1005H62.5374V62.8478H67.2845V67.5977H76.7869Z" fill="black"/>
<rect x="124.252" y="62.9268" width="4.74762" height="4.74762" fill="black"/>
<rect x="181.269" y="62.9268" width="4.74762" height="4.74762" fill="black"/>
<path d="M190.723 67.5098H195.473V72.2622H200.223V62.76H195.473V58.0127H190.723V67.5098Z" fill="black"/>
<path d="M5.51575 72.35H19.7653V77.0973H29.2648V72.35H24.515V62.8478H29.2648V53.3506H24.515V58.1005H15.0155V53.3506H10.2655V62.8478H19.7653V67.5977H0.768555V77.0973H5.51575V72.35Z" fill="black"/>
<path d="M43.5337 77.1792V62.9297H38.7839V67.6794H34.0342V77.1792H43.5337Z" fill="black"/>
<path d="M123.543 162.673H118.794V153.175H115.448V148.423H95.7572V153.175H91.0077V148.423H86.2607V153.175H72.0107V148.423H76.7603V143.673H72.0107V124.676H76.7603V138.926H86.2607V134.177L91.0077 134.176V129.427H86.2607V134.177L81.5081 134.176V119.928L86.2607 119.927V115.177H81.5081V119.928L67.2588 119.927V115.177H62.511V105.677H67.2588V96.1772H72.0107V91.4279H81.5081V86.6776H86.2607V81.9281H81.5081V72.4308H76.7603V67.679H81.5081V62.9287H86.2607V67.679H91.0077V81.9281H100.51V77.1786H95.7572V67.679H105.257V72.4308H110.007V77.1786H105.257V81.9281H110.007V91.4279H105.257V96.1772H119.507V91.4279H129.006V100.927H138.506V105.677H143.256V110.427H138.938V115.177H143.256V119.927H148.005V124.676H143.256V134.176H138.938V139.165H124.947V143.673H134.643V148.423H120.195V153.175H123.543V162.673ZM100.51 134.176V143.673H109.924V119.927H105.257V134.176H100.51ZM115.451 139.162V143.672H120.199V139.162H115.451ZM91.0101 138.925V143.672H95.7572V138.925H91.0101ZM115.274 115.504V134.063H133.837C133.837 133.278 133.833 124.753 133.756 124.677L133.756 115.504H115.274ZM95.7572 124.672V129.42H100.514V124.672H95.7572ZM105.257 110.427V115.177H109.924V110.427H105.257ZM95.7572 110.427V115.177H100.51V110.427H105.257V105.678L110.007 105.677V110.399H114.757V100.927H105.257V105.678L91.0077 105.677V110.427H95.7572ZM76.7603 105.677H72.0107V115.177H81.5081V110.427H76.7603V105.677ZM138.506 105.677H133.756V110.399H138.506V105.677ZM119.507 100.927V110.399H129.006V105.677H124.256V100.927H119.507ZM81.5081 91.4279V105.677H91.0077V100.927H95.7572V96.1772H86.2607V91.4279H81.5081ZM105.257 86.6776H95.7572V91.4279H105.257V86.6776Z" fill="black"/>
<path d="M109.977 72.2622H114.727V67.5098H119.476V58.0127H114.727V62.76H105.227V67.5098H109.977V72.2622Z" fill="black"/>
<rect x="119.532" y="67.5918" width="4.74762" height="4.75675" fill="black"/>
<rect x="185.999" y="67.5918" width="4.74762" height="4.75675" fill="black"/>
<rect x="67.2354" y="72.248" width="9.50436" height="4.74762" fill="black"/>
<rect x="200.241" y="72.248" width="4.74762" height="4.74762" fill="black"/>
<path d="M219.276 72.2622H224.026V67.5098H219.276V62.76H214.524V58.0127H209.777V62.76H205.027V67.5098H209.777V72.2622H214.524V77.0093H219.276V72.2622Z" fill="black"/>
<path d="M114.766 86.4932H133.765V81.7433H129.015V76.9934H124.266V81.7433H119.516V72.2461H114.766V76.9934H110.016V81.7433H114.766V86.4932Z" fill="black"/>
<path d="M200.248 81.9187V77.1689H185.999V81.9187H195.499V86.6686H204.999V96.1682H209.748V86.6686H219.248V81.9187H214.495V77.1689H204.999V81.9187H200.248Z" fill="black"/>
<path d="M71.9889 86.5741H76.7385V81.8242H67.2363V91.3239H71.9889V86.5741Z" fill="black"/>
<path d="M190.774 86.748H181.274V100.997H186.024V91.4979H190.774V86.748Z" fill="black"/>
<rect x="167.036" y="96.0684" width="9.49523" height="4.74762" fill="black"/>
<rect x="53.0015" y="100.98" width="4.75675" height="4.74762" fill="black"/>
<rect x="167.036" y="105.646" width="4.75675" height="4.74762" fill="black"/>
<rect x="19.7954" y="110.303" width="4.74762" height="4.74762" fill="black"/>
<path d="M176.485 162.516H195.484V157.766H190.734V153.019H185.985V157.766H176.485V162.516Z" fill="black"/>
<path d="M157.531 138.892V119.893H167.031V115.143H152.781V105.644H148.034V110.393H143.284V115.143H148.034V119.893H152.781V129.393H148.034V134.142H143.284V138.892H157.531Z" fill="black"/>
<rect x="219.269" y="138.779" width="4.74762" height="4.74762" fill="black"/>
<path d="M214.469 153.203H214.274V143.701H190.723V153.203H195.473V148.451H200.024V153.203H209.722V157.951H204.972V172.2H214.469V167.45H209.722V162.7H214.469V153.203Z" fill="black"/>
<path d="M24.506 162.516V153.019H15.0066V157.766H19.7562V162.516H24.506Z" fill="black"/>
<rect x="86.2622" y="153.021" width="4.74762" height="9.49523" fill="black"/>
<rect x="228.782" y="157.934" width="4.75675" height="4.74762" fill="black"/>
<rect x="86.2622" y="167.256" width="4.74762" height="4.74762" fill="black"/>
<rect x="143.288" y="167.256" width="4.74762" height="4.74762" fill="black"/>
<path d="M171.745 167.258H162.246V172.008H166.993V176.757H176.493V172.008H171.745V167.258Z" fill="black"/>
<rect x="176.485" y="167.256" width="4.74762" height="4.74762" fill="black"/>
<rect x="0.768555" y="186.42" width="4.74762" height="4.74762" fill="black"/>
<path d="M34.0342 186.415V191.165H38.7839V195.915H48.2837V191.165H43.5337V186.415H34.0342Z" fill="black"/>
<path d="M204.998 248.197L200.248 248.196V238.698H190.748V233.948H185.999V238.698H181.25V248.196H176.499V243.445H171.752V233.948H167V229.196H171.752V224.446H167V214.949H162.253V210.199H167V205.45H162.253V200.7L167 200.7V195.95H162.253V200.7L157.5 200.7V210.199H152.75V205.45H148.003V210.199H143.253V200.7H138.935V224.446H143.253V219.699H148.003V214.949H157.5V219.699H162.253V238.698H167V248.196H157.5V243.445H152.75V248.196H133.753V243.445H138.503V238.698H133.753V233.948H138.503V229.196H133.753V224.514H110.171V205.45H105.254V229.196H114.754V238.698H119.504V248.196H110.005V243.445H105.254V248.196H86.2573V243.445H91.0051V238.698H86.2573V233.948H91.0051V229.196H86.2573V224.446H81.5055V219.699H86.2573V214.949H76.7584V224.446H72.0082V219.699H67.2562V224.446H57.759V233.948H62.5084V238.698H76.7584V248.196H72.0082V243.445H67.2562V248.196H53.0071V219.699H57.759V214.949H53.0071V210.199H62.5084V214.949H72.0082V210.199H67.2562V205.45H76.7584V200.7H72.0082V195.95H67.2562V200.7H62.5084V205.45H57.759V200.7H53.0071V186.45H43.509V181.7H38.7595V162.701H43.509V167.451H48.2593V162.701H53.0071V172.2H62.5084V167.451H67.2562V172.2H72.0082V157.951H81.5055V162.701H76.7584V167.451H81.5055V172.2H86.2573V176.951H95.7546V167.451H100.507V172.2H104.541V162.701H95.7546V153.203H100.507V157.951H114.041V162.701H109.294V167.451H124.254V172.2H128.291V167.451L128.288 157.951H143.253V153.203H138.503V143.702H157.5V148.452H152.75V153.203H148.003V157.951H152.75V162.701H157.5V172.2H152.75V167.451H148.003V162.701H143.253V167.451H138.503V172.2H143.253V176.951H157.5V181.7H152.75V186.45H162.253V181.7H181.25V172.2H185.999V167.451H195.499V172.2H204.998V186.45H214.495V195.749H219.185V224.514H190.748V229.196H204.998V233.948H209.748V229.196H214.495V238.698H219.247V248.195L209.748 248.196V238.698H204.998V248.197ZM148.003 233.948V243.445H152.75V238.698H157.5V233.948H148.003ZM100.507 233.948V243.445H105.254V238.698H110.005V233.948H100.507ZM62.5084 238.698H57.759V243.445H62.5084V238.698ZM181.25 229.196V233.948H185.999V229.196H181.25ZM148.003 229.196H143.253V233.948H148.003V229.196ZM100.507 229.196H95.7546V233.948H100.507V229.196ZM181.25 224.446H176.499V229.196H181.25V224.446ZM152.75 224.446V229.196H157.5V224.446H152.75ZM91.01 214.951V224.447H100.514V214.951H91.01ZM148.003 219.699V224.446H152.75V219.699H148.003ZM185.999 214.949V219.699H190.417V214.949H185.999ZM171.756 214.951V219.699H176.503V214.951H171.756ZM195.522 200.855V219.415H214.082V200.855H195.522ZM115.272 200.85V219.413H133.834C133.835 218.236 133.83 205.481 133.753 205.45V200.85H115.272ZM181.25 210.199V214.949H185.999V210.199H181.25ZM171.752 205.45V210.199H176.499V205.451L181.25 205.45V200.7H176.499V205.451L171.752 205.45ZM86.2573 205.45V210.199H95.7546V205.45H100.507V200.7H91.0051V205.45H86.2573ZM81.5055 195.95V205.45H86.2573V195.95H81.5055ZM185.999 195.952V200.7H190.417V195.952H185.999ZM185.999 186.45H176.499V195.95H171.752V200.7H176.499V195.95H181.25V191.2H185.999V186.45ZM152.75 195.95H148.003V200.7H152.75V195.95ZM105.254 195.95V200.7H110.171V195.749H124.254V191.201L129.004 191.2V186.45H138.503V181.7H133.753V172.2H129.004V176.951H124.254V191.201L114.754 191.2V186.451L119.504 186.45V181.7H114.754V186.451L110.005 186.45V191.2H100.507V195.95H105.254ZM91.0051 191.2V195.95H95.7546V191.2H91.0051ZM76.7584 191.2V195.95H81.5055V191.2H76.7584ZM57.759 181.7V195.95H67.2562V191.201L72.0082 191.2V186.45H67.2562V191.201L62.5084 191.2V181.701L72.0082 181.7V176.951H62.5084V181.701L57.759 181.7ZM152.75 191.2V195.95H157.5V191.2H152.75ZM133.757 191.204V195.75H138.505V191.204H133.757ZM195.499 191.2V195.749H200.248V191.2H204.998V186.45H190.748V191.2H195.499ZM162.253 186.45V191.2H167V186.45H162.253ZM148.003 181.7H143.253V191.2H152.75V186.45H148.003V181.7ZM86.2573 186.45V191.2H91.0051V186.451L100.507 186.45V181.7H91.0051V186.451L86.2573 186.45ZM76.7577 181.699V186.447H81.5055V181.699H76.7577ZM57.759 176.951H53.0071V181.7H57.759V176.951ZM190.746 176.952V181.699H200.241V176.952H190.746ZM105.253 172.204V181.699H110V172.204H105.253ZM114.757 172.204V176.952H119.504V172.204H114.757ZM43.5066 172.204V176.952H48.2535V172.204H43.5066ZM81.5055 172.2H76.7584V176.951H81.5055V172.2ZM138.503 162.701H133.854V167.451H138.503V162.701Z" fill="black"/>
<path d="M238.228 67.5908V77.0906H242.978V72.3431H247.73V67.5908H238.228Z" fill="black"/>
<path d="M242.977 191.09H219.231V186.341H214.478V176.841H219.231V167.341H214.478V162.592H219.231V153.095H228.728V148.342H223.98V143.592H233.48V138.845H223.98V129.345H233.48V119.846H242.977V115.096H228.728V110.346H223.98V119.846H228.728V124.596H219.346V138.832L219.335 138.833C219.245 138.833 218.627 138.834 217.629 138.836C213.509 138.843 202.566 138.861 195.933 138.861C192.282 138.861 190.421 138.855 190.401 138.845L181.232 138.845V143.592H176.483V148.342H185.982V153.095H176.483V157.842H166.983V162.592H157.483V157.842H152.733V153.095H157.483V148.342H162.235V143.592H157.483V138.845H162.235V124.596H171.735V115.096H176.483V100.847H181.232V115.096H190.401V110.346H185.982V105.596H190.732V91.3469H200.232V96.0964H204.981V100.847H214.478V91.3469H219.231V86.5967H223.98V77.0978H228.728V58.1008H238.227V53.3506H242.977V62.8478H233.48V86.5967H238.227V91.3469H242.977V77.0978H247.729V100.847H242.977V105.596H247.729V124.596H242.977V129.345H247.729V148.342H242.977V157.842H247.729V181.59H242.977V176.841H238.227V181.59H228.728V186.341H242.977V191.09ZM219.231 176.841V181.59H223.98V176.842L228.728 176.841V172.092H223.98V176.842L219.231 176.841ZM233.48 167.341V172.092H242.977V162.592H238.227V157.842H233.48V153.095H228.728V157.842H223.98V162.592H228.728V167.341H233.48ZM162.235 148.342V153.095H166.983V148.342H162.235ZM238.231 138.843V143.591H242.979V138.843H238.231ZM166.98 138.843V143.591H171.737V138.843H166.98ZM181.232 134.095H176.483V138.845H181.232V134.095ZM171.735 129.345H166.983V134.095H171.735V129.345ZM195.503 115.223V133.785H214.064V115.223H195.503ZM171.735 124.596V129.345H190.401V119.846H185.982V124.596H171.735ZM223.98 100.847V105.596H219.231C219.232 105.6 219.234 105.655 219.237 105.748C219.312 107.824 219.392 110.307 219.346 110.346H223.98V105.596H228.728V100.847H223.98ZM195.484 105.6V110.12H209.737V105.6H195.484ZM242.977 96.0964H233.48V100.847H242.977V96.0964ZM223.98 96.0964H219.231V100.847H223.98V96.0964ZM223.98 86.5967V91.3469H228.728V86.5967H223.98Z" fill="black"/>
<rect x="243.016" y="195.732" width="4.75675" height="4.74762" fill="black"/>
<rect x="223.989" y="195.732" width="4.74762" height="14.252" fill="black"/>
<path d="M71.9889 224.474H67.2363V233.976H76.7385V229.224H71.9889V224.474Z" fill="black"/>
<rect x="76.7485" y="224.474" width="4.74762" height="4.74762" fill="black"/>
<path d="M228.736 224.387H233.488V214.89H223.989V229.136H228.736V224.387Z" fill="black"/>
<rect x="219.269" y="229.13" width="4.74762" height="4.75675" fill="black"/>
<rect x="223.989" y="233.795" width="4.74762" height="4.74762" fill="black"/>
<rect x="81.542" y="238.707" width="4.75675" height="4.74762" fill="black"/>
<rect x="185.999" y="238.707" width="4.74762" height="9.49523" fill="black"/>
<path d="M238.278 209.982V195.732H233.531V214.732H243.028V219.482H238.278V224.229H233.531V228.979H238.278V233.731H233.531V238.481H228.779V243.228H238.278V247.978H247.78V243.228H243.028V238.481H247.78V233.731H243.028V224.229H247.78V209.982H238.278Z" fill="black"/>
<path d="M129.031 238.631V229.129H119.531V233.881H124.281V243.378H133.781V238.631H129.031Z" fill="black"/>
<rect x="223.989" y="243.373" width="4.74762" height="4.74762" fill="black"/>
<rect x="34.0383" y="157.934" width="4.74762" height="4.74762" fill="black"/>
<rect x="43.488" y="157.934" width="4.74762" height="4.74762" fill="black"/>
<rect x="53.0015" y="157.934" width="4.75675" height="4.74762" fill="black"/>
<path d="M19.765 195.921H10.2653V191.171H15.0155V186.422H10.2653V181.672H5.51587V176.922H0.768066V172.172H5.51587V162.673H0.768066V143.673H5.51587V138.926H0.768066V119.927H5.51587V115.177H0.768066V100.927H5.51587V96.1772H0.768066V91.4279H5.51587V77.1786H15.0155V81.9281H38.7644V86.6776H43.5138V77.1786H48.2642V62.9287H53.0111V86.6776H57.7639V67.679H67.261V72.4308H62.5132V77.1786H67.261V81.9281H62.5132V91.4279H67.261V96.1772H57.7639V91.4279H53.0111V100.927H43.5138V110.201H48.2642V105.677H53.0111V110.201H58.095V115.177H62.5132V119.927H67.261V129.427H62.5132V134.176H67.261V162.673H62.5132V157.922H57.7639V153.175H62.5132V148.423H48.2642V138.968H38.7644V143.673H43.5138V157.922H38.7644V148.423H34.014V153.175H29.2648V148.423H19.765V138.926H15.0155V134.177L19.765 134.176V129.427H15.0155V134.177L10.2653 134.176V143.673H15.0155V148.423H5.51587V157.922H10.2653V162.673H19.765V167.422H29.2648V162.673H34.014V172.172H24.5145V176.922H34.014V181.672H29.2648V191.171H19.765V195.921ZM19.765 181.672V186.422H24.5145V176.922H19.765V172.172H15.0155V167.422H10.2653V176.922H15.0155V181.672H19.765ZM29.2648 138.926V143.673H34.014V138.968H29.3296C29.329 138.683 29.3304 110.508 29.2643 110.427L29.2648 105.677H19.765V110.427H10.2653V119.927H15.0155V115.177L19.765 115.177V124.676H24.5145V138.926H29.2648ZM34.4308 115.305V133.866H52.9922V115.305H34.4308ZM5.51587 124.672V129.42H10.2637V124.672H5.51587ZM62.5132 119.927H58.095V124.676H62.5132V119.927ZM34.014 105.677V110.201H38.7644V105.677H34.014ZM5.51587 100.927V105.677H10.2653V100.927H5.51587ZM29.2648 100.927V105.677H34.014V96.1772H43.5138V91.4279H24.5145V96.1772H19.765V100.927H29.2648ZM10.2637 91.4303V96.1781H15.0115V91.4303H10.2637ZM24.5145 86.6776H19.765V91.4279H24.5145V86.6776ZM43.5138 86.6776V91.4279H48.2642V86.6776H43.5138ZM15.0155 81.9281H10.2653V86.6776H15.0155V81.9281Z" fill="black"/>
<rect x="57.7856" y="162.6" width="4.74762" height="4.74762" fill="black"/>
<rect x="202.241" y="207.382" width="5.10369" height="5.10369" fill="black"/>
<rect x="202.241" y="121.952" width="5.10369" height="5.10369" fill="black"/>
<rect x="41.1506" y="121.952" width="5.10369" height="5.10369" fill="black"/>
<rect x="121.988" y="207.382" width="5.10369" height="5.10369" fill="black"/>
<rect x="121.988" y="122.217" width="5.10369" height="5.10369" fill="black"/>
<rect x="121.988" y="36.5225" width="5.10369" height="5.10369" fill="black"/>
<path d="M48.2625 48.2922L0.768066 48.2914V0.796875H48.2625V48.2922ZM5.51587 5.54468V43.5436H43.5155V5.54468H5.51587Z" fill="black"/>
<rect x="14.2354" y="14.2539" width="20.5791" height="20.5791" fill="black"/>
<path d="M48.2625 248.404L0.768066 248.403V200.908H48.2625V248.404ZM5.51587 205.656V243.655H43.5155V205.656H5.51587Z" fill="black"/>
<rect x="14.2354" y="214.376" width="20.5791" height="20.5791" fill="black"/>
<path d="M247.736 48.2922L200.241 48.2914V0.796875H247.736V48.2922ZM204.989 5.54468V43.5436H242.988V5.54468H204.989Z" fill="black"/>
<rect x="213.699" y="14.2539" width="20.5791" height="20.5791" fill="black"/>
</svg>
