<svg width="17" height="16" viewBox="0 0 17 16" fill="none" xmlns="http://www.w3.org/2000/svg">
<path d="M11.4803 0.484726C11.4443 0.466667 11.4082 0.451795 11.37 0.44011C11.2057 0.39337 11.0339 0.412491 10.8843 0.493224C10.7358 0.575019 10.6277 0.709928 10.5799 0.873518C10.5322 1.03711 10.5513 1.2092 10.633 1.35898C10.7136 1.5077 10.8483 1.61605 11.002 1.66066C12.7042 2.34371 14.0713 3.71192 14.7522 5.41793C16.1319 8.87033 14.4499 12.8039 11.002 14.1859C7.55418 15.5701 3.62801 13.8832 2.24717 10.4297C1.57902 8.75772 1.60129 6.92424 2.30974 5.26709C3.01819 3.611 4.32797 2.33096 6.00789 1.65748C6.27515 1.51619 6.40878 1.20389 6.32394 0.912822C6.2253 0.576081 5.87214 0.381685 5.52428 0.483663C3.50498 1.29418 1.8834 2.9184 1.0742 4.94097C-0.566481 9.04241 1.42948 13.7154 5.52428 15.3587C6.49681 15.7496 7.50221 15.9334 8.49065 15.9334C11.6649 15.9334 14.6747 14.0287 15.9262 10.9014C17.5658 6.80208 15.5709 2.13019 11.4803 0.484726Z" fill="#C1C0CE"/>
</svg>
