<svg width="37" height="36" viewBox="0 0 37 36" fill="none" xmlns="http://www.w3.org/2000/svg">
<path d="M15.1164 15.9599C14.9874 16.0559 14.9044 16.1969 14.8814 16.3559C14.8604 16.5139 14.9004 16.6719 14.9954 16.7989C15.0294 16.8449 15.0704 16.8849 15.1054 16.9109L18.0794 19.8919C18.1954 20.0059 18.3474 20.0629 18.4994 20.0629C18.6514 20.0629 18.8034 20.0059 18.9204 19.8919L21.8864 16.9239C22.0144 16.8279 22.0984 16.6869 22.1204 16.5279C22.1434 16.3699 22.1014 16.2119 22.0064 16.0839C21.9104 15.9559 21.7704 15.8729 21.6124 15.8499C21.4504 15.8239 21.2944 15.8679 21.1674 15.9639C21.1204 15.9979 21.0804 16.0389 21.0544 16.0729L19.0964 18.0319V10.5249C19.0544 10.1969 18.7514 9.95893 18.4264 10.0059C18.2174 10.0319 18.0424 10.1649 17.9574 10.3489L17.9044 10.2959V18.0309L15.9554 16.0799C15.7574 15.8149 15.3814 15.7609 15.1164 15.9599Z" fill="white"/>
<path d="M21.4803 10.485C21.4443 10.4669 21.4082 10.452 21.37 10.4404C21.2057 10.3936 21.0339 10.4127 20.8843 10.4935C20.7358 10.5753 20.6277 10.7102 20.5799 10.8738C20.5322 11.0374 20.5513 11.2094 20.633 11.3592C20.7136 11.5079 20.8483 11.6163 21.002 11.6609C22.7042 12.344 24.0713 13.7122 24.7522 15.4182C26.1319 18.8706 24.4499 22.8042 21.002 24.1862C17.5542 25.5703 13.628 23.8834 12.2472 20.43C11.579 18.758 11.6013 16.9245 12.3097 15.2673C13.0182 13.6112 14.328 12.3312 16.0079 11.6577C16.2752 11.5164 16.4088 11.2041 16.3239 10.9131C16.2253 10.5763 15.8721 10.3819 15.5243 10.4839C13.505 11.2944 11.8834 12.9186 11.0742 14.9412C9.43352 19.0427 11.4295 23.7156 15.5243 25.3589C16.4968 25.7499 17.5022 25.9336 18.4906 25.9336C21.6649 25.9336 24.6747 24.029 25.9262 20.9016C27.5658 16.8023 25.5709 12.1304 21.4803 10.485Z" fill="#C1C0CE"/>
</svg>
