<svg width="20" height="19" viewBox="0 0 20 19" fill="none" xmlns="http://www.w3.org/2000/svg">
<path d="M7.85207 0.5C12.0786 0.5 15.5049 3.74594 15.5049 7.75C15.5049 9.4819 14.8638 11.0719 13.7943 12.3188L18.9674 17.2197C19.2766 17.5126 19.2766 17.9874 18.9674 18.2803C18.6864 18.5466 18.2466 18.5708 17.9366 18.3529L17.8479 18.2803L12.6747 13.3795C11.3585 14.3927 9.68019 15 7.85207 15C3.62555 15 0.19928 11.7541 0.19928 7.75C0.19928 3.74594 3.62555 0.5 7.85207 0.5ZM7.85207 2C4.5 2 1.78262 4.57436 1.78262 7.75C1.78262 10.9256 4.5 13.5 7.85207 13.5C11.2041 13.5 13.9215 10.9256 13.9215 7.75C13.9215 4.57436 11.2041 2 7.85207 2Z" fill="#84819D"/>
</svg>
