<svg width="100" height="57" viewBox="0 0 100 57" fill="none" xmlns="http://www.w3.org/2000/svg">
<path fill-rule="evenodd" clip-rule="evenodd" d="M64.9434 32.7666C61.9328 34.4308 58.2782 34.4308 55.2676 32.7666L27.3878 17.3551C24.7141 15.8771 21.4355 17.8109 21.4355 20.8659C21.4355 22.3258 22.2287 23.6705 23.5063 24.3767L55.2676 41.9339C58.2782 43.5981 61.9328 43.5981 64.9434 41.9339L96.7046 24.3767C97.9823 23.6705 98.7754 22.3258 98.7754 20.8659C98.7754 17.8109 95.4968 15.8771 92.8231 17.3551L64.9434 32.7666Z" fill="#523EE8" style="mix-blend-mode:soft-light"/>
<path fill-rule="evenodd" clip-rule="evenodd" d="M23.2536 12.4693C23.2536 7.14769 27.5676 2.83369 32.8892 2.83369H87.3215C92.6431 2.83369 96.9571 7.14768 96.9571 12.4693V14.5024L64.7597 32.2642C61.8626 33.8624 58.3482 33.8624 55.4511 32.2642L23.2536 14.5024V12.4693ZM20.8447 15.9246V12.4693C20.8447 5.8173 26.2372 0.424805 32.8892 0.424805H87.3215C93.9735 0.424805 99.366 5.81729 99.366 12.4693V15.9247V44.227C99.366 50.8789 93.9735 56.2714 87.3215 56.2714H32.8892C26.2372 56.2714 20.8447 50.879 20.8447 44.227V15.9246ZM96.9571 17.2535V44.227C96.9571 46.0835 96.432 47.8173 95.5224 49.2882L75.3869 29.1528L96.9571 17.2535ZM73.1914 30.3639L94.0001 51.1726C92.268 52.8384 89.9144 53.8625 87.3215 53.8625H32.8892C30.2963 53.8625 27.9426 52.8384 26.2106 51.1725L47.0192 30.3638L54.2876 34.3734C57.9089 36.3712 62.3019 36.3712 65.9232 34.3734L73.1914 30.3639ZM23.2536 44.227C23.2536 46.0834 23.7786 47.8173 24.6883 49.2881L44.8237 29.1527L23.2536 17.2535V44.227Z" fill="#523EE8"/>
<path d="M6.06445 22H20.845" stroke="#523EE8" stroke-width="2.5" stroke-linecap="round"/>
<path d="M3 34L21 34" stroke="#523EE8" stroke-width="2.5" stroke-linecap="round"/>
<path d="M11 40L21 40" stroke="#523EE8" stroke-width="2.5" stroke-linecap="round"/>
<path d="M2 28L8 28" stroke="#523EE8" stroke-width="2.5" stroke-linecap="round"/>
<path d="M12.9614 28L20.8447 28" stroke="#523EE8" stroke-width="2.5" stroke-linecap="round"/>
</svg>
