<svg width="55" height="55" viewBox="0 0 55 55" fill="none" xmlns="http://www.w3.org/2000/svg">
<path fill-rule="evenodd" clip-rule="evenodd" d="M40.9392 0C34.0245 0 28.4189 5.64984 28.4189 12.6193C28.4189 19.5887 34.0245 25.2385 40.9392 25.2385C47.854 25.2385 53.4595 19.5887 53.4595 12.6193C53.4595 5.64984 47.854 0 40.9392 0Z" fill="#523EE8"/>
<path fill-rule="evenodd" clip-rule="evenodd" d="M12.9782 6.62012C7.72658 6.62012 3.46958 10.8771 3.46958 16.1287V22.434L3.05337 22.0177C2.35488 21.3192 1.2224 21.3192 0.523892 22.0177C-0.174615 22.7162 -0.174633 23.8487 0.523852 24.5472L3.99343 28.0169C4.32886 28.3523 4.7838 28.5407 5.25816 28.5408C5.73253 28.5408 6.18748 28.3523 6.52291 28.0169L9.99271 24.5472C10.6912 23.8487 10.6912 22.7162 9.99275 22.0177C9.29427 21.3192 8.16178 21.3192 7.46327 22.0177L7.0468 22.4341V16.1287C7.0468 12.8528 9.70223 10.1973 12.9782 10.1973H22.6646C23.6524 10.1973 24.4532 9.39655 24.4532 8.40873C24.4532 7.42091 23.6524 6.62012 22.6646 6.62012H12.9782Z" fill="#0A043C"/>
<path fill-rule="evenodd" clip-rule="evenodd" d="M51.9467 34.106C52.6452 34.8045 53.7777 34.8045 54.4762 34.106C55.1747 33.4075 55.1747 32.275 54.4762 31.5765L51.0066 28.1069C50.3081 27.4084 49.1757 27.4084 48.4771 28.1069L45.0073 31.5765C44.3088 32.275 44.3088 33.4075 45.0073 34.106C45.7058 34.8045 46.8383 34.8045 47.5368 34.106L47.9528 33.69V38.9841C47.9528 42.26 45.2974 44.9155 42.0214 44.9155H32.335C31.3472 44.9155 30.5464 45.7162 30.5464 46.7041C30.5464 47.6919 31.3472 48.4927 32.335 48.4927H42.0214C47.273 48.4927 51.53 44.2357 51.53 38.9841V33.6893L51.9467 34.106Z" fill="#0A043C"/>
<path fill-rule="evenodd" clip-rule="evenodd" d="M3.66309 41.9177C3.66309 35.0572 9.32285 29.3975 16.1834 29.3975C23.0439 29.3975 28.7036 35.0572 28.7036 41.9177C28.7036 48.7782 23.0439 54.438 16.1834 54.438C9.32285 54.438 3.66309 48.7782 3.66309 41.9177ZM16.1834 50.8889C21.0837 50.8889 25.1545 46.8181 25.1545 41.9177C25.1545 37.0174 21.0837 32.9466 16.1834 32.9466C11.283 32.9466 7.21224 37.0174 7.21224 41.9177C7.21224 46.8181 11.283 50.8889 16.1834 50.8889Z" fill="#0A043C"/>
<path fill-rule="evenodd" clip-rule="evenodd" d="M45.4072 9.48455C45.7989 9.85013 45.82 10.464 45.4544 10.8557L40.8463 15.793C40.6668 15.9854 40.4168 16.0965 40.1538 16.1011C39.8907 16.1056 39.6371 16.0031 39.4511 15.8171L36.8178 13.1838C36.439 12.805 36.439 12.1907 36.8178 11.8119C37.1967 11.433 37.811 11.433 38.1898 11.8119L40.113 13.735L44.036 9.53183C44.4016 9.14014 45.0155 9.11897 45.4072 9.48455Z" fill="white"/>
</svg>
