<svg width="64" height="56" viewBox="0 0 64 56" fill="none" xmlns="http://www.w3.org/2000/svg">
<path d="M55.5587 1.6488C55.5302 1.57274 55.5111 1.50619 55.4731 1.43014C55.4636 1.40162 55.4541 1.37309 55.4446 1.34457C55.4351 1.32556 55.4161 1.31605 55.4066 1.29704C55.321 1.15444 55.2355 1.02134 55.1119 0.897748C54.9884 0.774158 54.8553 0.679088 54.7127 0.603033C54.6937 0.593526 54.6842 0.574512 54.6652 0.565005C54.6462 0.555498 54.6082 0.545991 54.5892 0.536484C54.5131 0.498456 54.4466 0.469935 54.3705 0.450921C47.5649 -2.33461 12.5862 8.48429 3.46126 13.7511C0.239035 15.605 -0.169684 17.668 0.048933 19.056C0.999442 24.9788 16.9965 29.1714 25.0853 30.9112C26.8343 38.9921 31.0165 54.9923 36.9382 55.9525C37.1378 55.981 37.3469 56 37.575 56C38.9153 56 40.6547 55.306 42.2515 52.5395C47.5174 43.4128 58.3342 8.41774 55.5492 1.62978L55.5587 1.6488ZM3.80344 18.4571C3.78443 18.362 4.00305 17.8296 5.35277 17.05C14.8769 11.5455 40.1319 4.55792 49.561 3.74983L26.0739 27.2415C14.4491 24.7317 4.16464 20.7007 3.80344 18.4571ZM38.9628 50.6571C38.1834 52.0166 37.6321 52.2257 37.556 52.2067C35.3128 51.8455 31.2827 41.5589 28.7733 29.932L52.2509 6.4403C51.443 15.8712 44.4567 41.1216 38.9628 50.6476V50.6571Z" fill="#0A043C"/>
<path fill-rule="evenodd" clip-rule="evenodd" d="M50.5203 24C43.6055 24 38 29.6498 38 36.6193C38 43.5887 43.6055 49.2385 50.5203 49.2385C57.435 49.2385 63.0406 43.5887 63.0406 36.6193C63.0406 29.6498 57.435 24 50.5203 24Z" fill="#523EE8"/>
<path fill-rule="evenodd" clip-rule="evenodd" d="M54.9882 33.4845C55.3799 33.8501 55.4011 34.464 55.0355 34.8557L50.4273 39.793C50.2478 39.9854 49.9979 40.0965 49.7348 40.1011C49.4718 40.1056 49.2182 40.0031 49.0321 39.8171L46.3989 37.1838C46.02 36.805 46.02 36.1907 46.3989 35.8119C46.7778 35.433 47.392 35.433 47.7709 35.8119L49.6941 37.735L53.617 33.5318C53.9826 33.1401 54.5965 33.119 54.9882 33.4845Z" fill="white"/>
</svg>
