<svg width="26" height="23" viewBox="0 0 26 23" fill="none" xmlns="http://www.w3.org/2000/svg">
<path d="M21.6947 7.39892e-05H9.1987C8.74292 7.39892e-05 8.32156 0.243128 8.09345 0.638231C7.86541 1.03304 7.86541 1.51944 8.09345 1.91425C8.32148 2.30905 8.74285 2.55241 9.1987 2.55241H21.6947C22.0331 2.55241 22.358 2.68677 22.5973 2.92612C22.8366 3.16541 22.971 3.49 22.971 3.82842V14.3526C22.971 14.6911 22.8366 15.0157 22.5973 15.2549C22.358 15.4942 22.0331 15.6287 21.6947 15.6287H17.7337C16.717 15.6304 15.7421 16.0359 15.0239 16.7558L12.7617 18.9931L10.5409 16.7722C9.82265 16.0523 8.84806 15.6471 7.83101 15.6454H3.82864C3.48733 15.6454 3.16015 15.5087 2.92028 15.2656C2.6804 15.0228 2.54804 14.6939 2.55233 14.3526V3.82835C2.55233 3.48992 2.68677 3.16533 2.92605 2.92605C3.1654 2.68677 3.49021 2.55233 3.82864 2.55233H6.08272C6.53879 2.55233 6.95986 2.30898 7.18767 1.91417C7.41571 1.51937 7.41571 1.03296 7.18767 0.638157C6.95993 0.243055 6.53857 0 6.08242 0H3.82864C2.81299 0 1.8393 0.403463 1.12138 1.12138C0.403463 1.8393 0 2.813 0 3.82835V14.3526C0 15.3687 0.403167 16.3433 1.12079 17.0627C1.8387 17.7818 2.8124 18.187 3.82864 18.1894H7.8313C8.17003 18.1888 8.49462 18.3229 8.73419 18.5622L11.8585 21.6865C12.099 21.9241 12.4236 22.0577 12.7617 22.0577C13.0999 22.0577 13.4244 21.9241 13.6649 21.6865L16.7892 18.5622C17.0415 18.3185 17.3834 18.1896 17.7338 18.2059H21.7364C22.7483 18.1928 23.714 17.7804 24.4231 17.0587C25.1323 16.337 25.5278 15.3645 25.5234 14.3526V3.82842C25.5234 2.81307 25.12 1.83937 24.4021 1.12145C23.6841 0.403537 22.7104 7.39892e-05 21.6947 7.39892e-05Z" fill="#3B356B"/>
</svg>
