<svg width="24" height="24" viewBox="0 0 24 24" fill="none" xmlns="http://www.w3.org/2000/svg">
<path fill-rule="evenodd" clip-rule="evenodd" d="M2.12622 11.0564H8.93012C10.1208 11.0564 11.0563 10.1208 11.0563 8.93013V2.12623C11.0563 0.935519 10.1208 0 8.93012 0H2.12622C0.935518 0 0 0.935519 0 2.12623V8.93013C0 10.1208 0.935518 11.0564 2.12622 11.0564ZM7.6544 8.50491H3.40195C2.93419 8.50491 2.55144 8.12216 2.55144 7.6544V3.40195C2.55144 2.93419 2.93419 2.55144 3.40195 2.55144H7.6544C8.12216 2.55144 8.5049 2.93419 8.5049 3.40195V7.6544C8.5049 8.12216 8.12216 8.50491 7.6544 8.50491ZM14.8837 11.0564H21.6875C22.8783 11.0564 23.8138 10.1208 23.8138 8.93013V2.12623C23.8138 0.935519 22.8783 0 21.6875 0H14.8837C13.6929 0 12.7574 0.935519 12.7574 2.12623V8.93013C12.7574 10.1208 13.6929 11.0564 14.8837 11.0564ZM20.4118 8.50491H16.1594C15.6916 8.50491 15.3089 8.12216 15.3089 7.6544V3.40195C15.3089 2.93419 15.6916 2.55144 16.1594 2.55144H20.4118C20.8796 2.55144 21.2623 2.93419 21.2623 3.40195V7.6544C21.2623 8.12216 20.8796 8.50491 20.4118 8.50491ZM8.93012 23.8138H2.12622C0.935518 23.8138 0 22.8783 0 21.6876V14.8837C0 13.693 0.935518 12.7574 2.12622 12.7574H8.93012C10.1208 12.7574 11.0563 13.693 11.0563 14.8837V21.6876C11.0563 22.8783 10.1208 23.8138 8.93012 23.8138ZM3.40195 21.2623H7.6544C8.12216 21.2623 8.5049 20.8796 8.5049 20.4118V16.1594C8.5049 15.6917 8.12216 15.3089 7.6544 15.3089H3.40195C2.93419 15.3089 2.55144 15.6917 2.55144 16.1594V20.4118C2.55144 20.8796 2.93419 21.2623 3.40195 21.2623ZM14.8837 23.8138H21.6875C22.8783 23.8138 23.8138 22.8783 23.8138 21.6876V14.8837C23.8138 13.693 22.8783 12.7574 21.6875 12.7574H14.8837C13.6929 12.7574 12.7574 13.693 12.7574 14.8837V21.6876C12.7574 22.8783 13.6929 23.8138 14.8837 23.8138ZM20.4118 21.2623H16.1594C15.6916 21.2623 15.3089 20.8796 15.3089 20.4118V16.1594C15.3089 15.6917 15.6916 15.3089 16.1594 15.3089H20.4118C20.8796 15.3089 21.2623 15.6917 21.2623 16.1594V20.4118C21.2623 20.8796 20.8796 21.2623 20.4118 21.2623Z" fill="#3B356B"/>
</svg>
