<svg width="25" height="22" viewBox="0 0 25 22" fill="none" xmlns="http://www.w3.org/2000/svg">
<path d="M23.7473 3.29683L20.8189 0.368411C20.3277 -0.122804 19.5314 -0.122804 19.0401 0.368411C18.5489 0.859625 18.5489 1.65597 19.0401 2.14718L19.8862 2.99325H3.72779C1.6723 2.99325 0 4.66556 0 6.72105V10.4741C0 11.1688 0.563131 11.7319 1.25781 11.7319C1.9525 11.7319 2.51563 11.1688 2.51563 10.4741V6.72105C2.51563 6.0527 3.05945 5.50888 3.72779 5.50888H19.8292L19.0401 6.29805C18.5489 6.78919 18.5489 7.58561 19.0401 8.07683C19.2857 8.3224 19.6076 8.44522 19.9295 8.44522C20.2514 8.44522 20.5733 8.3224 20.8189 8.07683L23.7473 5.14833C24.0022 4.89352 24.1236 4.5565 24.114 4.22258C24.1236 3.88867 24.0022 3.55172 23.7473 3.29683Z" fill="#3B356B"/>
<path d="M22.8579 10.0039C22.1632 10.0039 21.6001 10.5671 21.6001 11.2617V15.0147C21.6001 15.683 21.0563 16.2268 20.3879 16.2268H4.28647L5.07557 15.4377C5.56685 14.9465 5.56685 14.1501 5.07557 13.6589C4.58435 13.1678 3.78801 13.1678 3.29687 13.6589L0.368379 16.5874C0.113487 16.8422 -0.0079295 17.1792 0.00168909 17.5131C-0.0079295 17.8471 0.113487 18.184 0.368379 18.4389L3.29687 21.3673C3.54244 21.6129 3.86429 21.7358 4.18622 21.7358C4.50807 21.7358 4.83 21.6129 5.07557 21.3673C5.56685 20.8761 5.56685 20.0798 5.07557 19.5885L4.2295 18.7424H20.3879C22.4434 18.7424 24.1157 17.0702 24.1157 15.0147V11.2617C24.1157 10.5671 23.5526 10.0039 22.8579 10.0039Z" fill="#3B356B"/>
</svg>
