<svg width="23" height="21" viewBox="0 0 23 21" fill="none" xmlns="http://www.w3.org/2000/svg">
<path d="M19.7079 20.3246C20.4547 20.3246 21.1709 20.0186 21.6988 19.4739C22.2268 18.9292 22.5234 18.1903 22.5234 17.4199V9.12109C22.5234 8.19669 22.1674 7.31024 21.5338 6.65663C20.9003 6.00276 20.0411 5.63571 19.1448 5.63571H3.85394C3.43924 5.63597 3.04058 5.4702 2.74168 5.17312C2.44302 4.87633 2.2678 4.47135 2.2525 4.04375C2.26754 3.58724 2.45193 3.15413 2.76768 2.83388C3.08343 2.51393 3.50628 2.33106 3.9491 2.32369H19.1446C19.4433 2.32369 19.73 2.44605 19.9411 2.66392C20.1523 2.88178 20.2709 3.17728 20.2709 3.48538V3.8777C20.2709 4.29293 20.4854 4.67626 20.834 4.88394C21.1824 5.09154 21.6117 5.09154 21.9601 4.88394C22.3085 4.67633 22.5232 4.29295 22.5232 3.8777V3.48538C22.5232 2.56098 22.1672 1.67452 21.5336 1.02092C20.9001 0.367049 20.0409 0 19.1446 0H3.85375C2.83225 0.00184761 1.85312 0.421547 1.13085 1.16669C0.408591 1.91184 0.00201979 2.92204 0 3.97583V15.6771C0 16.9096 0.474638 18.0918 1.31936 18.9633C2.16407 19.8347 3.31 20.3244 4.50465 20.3244L19.7079 20.3246ZM20.2711 13.7383L16.3806 13.7385C16.0714 13.7343 15.8215 13.4767 15.8177 13.1575V12.4784C15.8177 12.1577 16.0697 11.8977 16.3806 11.8977H20.2782L20.2711 13.7383ZM2.25231 15.6772V7.59731C2.75399 7.83756 3.30084 7.96122 3.85374 7.95939H19.1446C19.4432 7.95939 19.7299 8.08173 19.9411 8.2996C20.1523 8.51748 20.2709 8.81297 20.2709 9.12107V9.56628H16.3804C15.6331 9.56839 14.9169 9.876 14.3892 10.422C13.8615 10.9677 13.5651 11.7073 13.5651 12.4783V13.18C13.5728 13.9457 13.8725 14.6778 14.3994 15.2172C14.9263 15.7566 15.6382 16.06 16.3804 16.0621H20.278V17.4201C20.278 17.7411 20.026 18.0008 19.7151 18.0008H4.50455C3.90723 18.0008 3.33438 17.7561 2.912 17.3203C2.48938 16.8846 2.25231 16.2935 2.25231 15.6772Z" fill="#3B356B"/>
</svg>
