<svg width="21" height="26" viewBox="0 0 21 26" fill="none" xmlns="http://www.w3.org/2000/svg">
<path d="M3.83671 25.5395H16.7641C17.7802 25.5395 18.7548 25.1364 19.4742 24.4187C20.1936 23.7008 20.5988 22.7271 20.6009 21.7109V7.80608C20.611 7.46647 20.4823 7.13729 20.2445 6.89453L13.4164 0.347972C13.1754 0.124006 12.8586 -0.000295429 12.5298 5.27281e-07H3.83678C2.82061 5.27281e-07 1.84603 0.402872 1.12663 1.12079C0.407236 1.83841 0.00207169 2.81211 0 3.82835V21.7115C0.00199771 22.7277 0.407162 23.7015 1.12663 24.4194C1.84595 25.137 2.82054 25.5395 3.83671 25.5395ZM17.1614 7.50761H13.6148C13.2611 7.50761 12.9729 7.2232 12.9683 6.86945V3.51338L17.1614 7.50761ZM2.56039 3.84485C2.56039 3.50642 2.69505 3.18154 2.93441 2.94225C3.17369 2.70297 3.49828 2.56854 3.83671 2.56854H10.4663V6.86945C10.4686 7.7079 10.7992 8.51194 11.3883 9.10851C11.9773 9.70538 12.7767 10.047 13.6152 10.0599H18.0071V21.711C18.0071 22.0494 17.8727 22.3743 17.6334 22.6136C17.3941 22.8529 17.0695 22.9873 16.7308 22.9873H3.83671C3.49828 22.9873 3.17369 22.853 2.93441 22.6136C2.69513 22.3743 2.56039 22.0494 2.56039 21.711V3.84485Z" fill="white"/>
</svg>
